<?xml version="1.0" encoding="utf-8"?>
<!-- Generator: Adobe Illustrator 24.2.2, SVG Export Plug-In . SVG Version: 6.00 Build 0)  -->
<svg version="1.1" xmlns="http://www.w3.org/2000/svg" xmlns:xlink="http://www.w3.org/1999/xlink" x="0px" y="0px"
	 viewBox="0 0 502.6 487.5" style="enable-background:new 0 0 502.6 487.5;" xml:space="preserve">
<style type="text/css">
	.st0{fill:#FFFFFF;}
	.st1{fill:#CCD7F3;}
	.st2{fill:#ECECF0;}
	.st3{fill:#CDB299;}
	.st4{fill:#BEA38D;}
	.st5{fill:#92806D;}
	.st6{fill:#656FCB;}
	.st7{fill:#FD4D0A;}
	.st8{fill:#CAC8B4;}
	.st9{fill:#33479D;}
	.st10{fill:#CC3B30;}
	.st11{fill:#95806D;}
	.st12{fill:#F7F7E0;}
	.st13{fill:#F6F7E0;}
	.st14{fill:#CDB098;}
	.st15{fill:#AD9680;}
	.st16{fill:#ADC3F4;}
	.st17{fill:#7B88D0;}
	.st18{fill:#877EF0;}
	.st19{fill:#E4EAE6;}
	.st20{fill:#E0E3CD;}
</style>
<g id="BACKGROUND">
</g>
<g id="OBJECTS">
	<g>
		<g>
			<path class="st16" d="M38.7,243.5c3.4-5.1,7.8-9.3,11.7-14c5.1-6,10.3-11.9,15.3-17.9c1.5-1.7,2.6-2.3,4.6-0.6
				c19,16.1,38.1,32.2,57.2,48.3c1.1,1,1.7,1.9,1.2,3.4c-1.4,3.9-4.6,6.4-7.1,9.3c-6.3,7.3-12.5,14.6-18.9,21.8
				c-0.8,0.9-1.5,2-2.8,2.1c-1.3-0.3-2-1.6-3.1-2.2c-17.8-14.8-35.3-29.9-53.1-44.7C41.9,247.3,39.7,245.9,38.7,243.5z"/>
			<path class="st9" d="M38.7,243.5c8,6.7,16,13.4,24,20.1c11.6,9.8,23.2,19.7,34.8,29.6c0.8,1.2,0,2.1-0.7,2.9
				c-1.9,2.3-3.5,4.8-5.6,6.8c-3.3,3.2-6,6.6-6.9,11.2c-6.2-4.4-11.7-9.6-17.5-14.5c-4.4-3.8-9.1-7.4-13.5-11.3
				c-5.9-5.2-11.9-10.1-17.9-15.2c-2.6-2.2-5.2-4.2-7.8-6.5c-4.1-3.7-4.4-6.2-0.6-10.2c3.5-3.7,6.5-7.8,9.9-11.5
				C37.5,244.3,38.1,243.9,38.7,243.5z"/>
			<path class="st12" d="M99.9,295.5c8.9-10.3,17.8-20.5,26.7-30.8c0.6-0.7,1.4-1.3,2.1-2c2.2,1.9,4.4,3.8,6.6,5.7
				c0.7,1.7-0.7,2.6-1.5,3.6c-8.6,9.9-17.2,19.8-25.7,29.7c-1.6,1.3-2.5,3.2-4.4,4.2c-0.5,0.2-1.1,0.2-1.6-0.1
				c-1.7-1.1-2.9-0.8-4.2,0.8c-1.2,1.5-2,2.8-0.3,4.5c0.5,0.5,0.5,1.2,0.3,1.9c-0.4,1-1.2,1.8-2,2.5c-2.6,2.4-4.9,2.4-7.5,0.1
				c-2.6-2.3-2.9-4.8-0.8-7.4c3.2-4,6.7-7.7,10.1-11.5C98.3,296,99,295.5,99.9,295.5z"/>
			<path class="st16" d="M107.4,301.2c7.7-9,15.5-18,23.2-27c1.6-1.9,3.1-3.9,4.7-5.8c0.9-0.3,1.9-1.1,2.6,0.1
				c0.6,1-0.3,1.8-0.9,2.5c-9.2,10.6-18.4,21.1-27.6,31.7C108.1,303.1,107.5,302.4,107.4,301.2z"/>
			<path class="st17" d="M99.9,295.5c-3.8,4.4-7.7,8.9-11.5,13.3c-2.2,2.6-2,3.7,0.8,6.2c2.2,2,4.1,2.2,6.1-0.2
				c0.7-0.9,1.6-1.8,2.4-2.6c1.3-0.2,2.1,0.2,2,1.7c-0.9,1.1-1.7,2.2-2.7,3.2c-3.1,3.1-5.8,3.2-9.1,0.3c-1.2-1.1-2.4-2.2-3.6-3.4
				c-1.3-4,1.4-6.6,3.7-9.1c3.4-3.7,6.8-7.5,9.5-11.8C98.6,293.6,99.4,294.4,99.9,295.5z"/>
			<path class="st7" d="M99.7,313.9c-0.4-0.8-1.2-1.3-2-1.7c-0.5-0.5-0.8-1-1.4-1.3c-1.8-1.1-1.8-2.2-0.3-3.5
				c0.2-0.2,0.5-0.5,0.6-0.7c1.8-3.3,4-3.8,6.7-1.1c1.1,0.1,2.1,0.4,2.3,1.8c3,1.8,2.3,4.5,1.9,7.1c-0.2,1.4-0.4,2.8-0.7,4.6
				C104.3,317.2,102,315.6,99.7,313.9z"/>
			<path class="st17" d="M105.6,307.4c-0.8-0.6-1.5-1.2-2.3-1.8c1.3-1.5,2.7-2.9,4-4.4c0.7,0.5,1.3,1,2,1.5
				C108.1,304.3,106.9,305.8,105.6,307.4z"/>
		</g>
		<g>
			<g>
				<path class="st9" d="M118.2,139.7C118.2,139.7,118.2,139.7,118.2,139.7C118.2,139.7,118.2,139.7,118.2,139.7
					c-2.2,0.4-3.5,2.1-3.9,3.8c-1,3.9-1.8,7.9-1.8,12c1.5-1.1,3-2.1,3.9-3.8c2.2,1.1,4.4,1.4,6.7,0.5c0.7-4.1,1.4-8.2,2.2-12.3
					C122.9,139.6,120.6,138.5,118.2,139.7z"/>
				<path class="st9" d="M108.4,201.5C108.4,201.5,108.4,201.5,108.4,201.5c-1.8,0.4-2.7,1.8-3.7,3.2c-1.2,3.9-1.9,7.8-1.9,11.9
					c0.9-1.9,2.5-2.9,4.3-3.7c2.1-0.5,4.2,0.3,6.3,0.4c0.6-3.9,1.2-7.8,1.8-11.7C113,201.1,110.7,200.4,108.4,201.5z"/>
				<path class="st9" d="M115.8,155.8C115.8,155.8,115.8,155.8,115.8,155.8c-1.7,0.6-3,1.7-3.8,3.3c-1.1,3.4-1.7,6.9-1.7,10.5
					c1-2.1,2.7-3.4,4.9-4c1.9-0.1,3.9,0.1,5.8,0.6c0.5-3.4,1.1-6.8,1.6-10.3C120.2,155.6,118,154.9,115.8,155.8z"/>
			</g>
			<path class="st6" d="M125.2,139.9c17,2.7,34,5.4,51,8c1.7,0.3,2.2,1.1,1.9,2.8c-3.8,23.8-7.6,47.7-11.4,71.5
				c-0.9,0.3-1.8,0.1-2.6,0c-15.8-2.5-31.6-5-47.4-7.5c-1.2-0.2-2.5-0.3-3.5-1.3c-0.5-0.7-0.5-1.5-0.4-2.4c0.5-3.3,0.9-6.6,1.7-9.9
				c0.7-6.7,2-13.4,3-20.1c0.8-5.1,1.4-10.2,2.5-15.2c0.3-3.4,0.8-6.8,1.6-10.1c0.1-1.3,0.2-2.5,0.6-3.7c0.2-3.3,0.9-6.5,1.4-9.8
				C124,141.3,124.3,140.5,125.2,139.9z"/>
			<path class="st1" d="M120.8,166.2c-8.4,49.1-1.2,30.3-16.3,37.8c2.1-12.3,3-24,6.3-36.4C112.7,164.7,118.6,163.5,120.8,166.2z"/>
			<path class="st18" d="M113.4,213.3c16.8,2.7,33.6,5.4,50.4,8c1,0.2,2.1,0.2,2.9,1c-0.1,0.6-0.2,1.1-0.2,1.7c-0.7,1-1.6,1-2.7,0.8
				c-17.7-2.8-35.4-5.6-53.1-8.4c-1.4-0.2-2.8-0.5-3.9,0.7c-0.4,0.6-0.9,1.2-1.2,1.9c-0.9,2.5,0.4,4.8,3,5.2
				c0.9,0.2,1.8,0.2,2.6,0.6c0.9,1,2,0.4,3,0.3c1.1,0.1,2.2,0.3,3.3,0.6c0.9,0.2,1.4,1.8,2.7,0.9c12.2,1.7,24.4,3.8,36.6,5.7
				c1.2,0,2.3,0.3,3.4,0.4c0.8,0.1,1.6,0.4,2.2-0.4c0.2-0.1,0.4-0.2,0.6-0.3c1.1,0.5,1.3,1.6,1.8,2.4c0,1.5-0.7,2-2.3,1.8
				c-18.4-3-36.8-5.8-55.2-8.8c-4.7-0.8-6.7-5.6-4.6-10.7c0.2-2.9,2.5-3.6,4.6-4.5C109.6,211.8,111.7,211.7,113.4,213.3z"/>
			<path class="st1" d="M112.5,155.5c1.6-3.9,5.9-4.6,10.6-3.3c-0.1,2.4-0.7,3.3-1.3,3.6c-1.1,0.6-2.2-0.7-4.1-0.6
				c-1.7,0.1-3.1,1.3-4.1,2.5c-0.6,0.5-1.3,1-1.6,0.8C111.5,158.4,112,156.7,112.5,155.5z"/>
			<path class="st9" d="M164.4,224.2c0.7-0.1,1.5-0.1,2.2-0.2c-0.6,3.5-1.1,6.9-1.7,10.4c-1.1-0.3-2.1-0.8-1.7-2.2
				c-0.5-0.3-0.6-0.8-0.6-1.3c0-0.5,0-1,0.2-1.4c0.1-0.5,0.1-0.9,0.2-1.4c0-0.5,0.1-0.9,0.2-1.4c0.1-0.4,0.1-0.7,0.2-1.1
				C163.5,224.9,163.7,224.4,164.4,224.2z"/>
			<path class="st1" d="M129.5,185.7c0.8-4.8,1.5-9.6,2.3-14.3c0.4-2.6,1.3-3.3,4-2.9c7.8,1.2,15.6,2.4,23.4,3.7
				c3.2,0.5,3.9,1.4,3.3,4.7c-1.4,8.8-2.8,17.7-4.2,26.5c-0.1,0.9-0.4,1.7-0.6,2.6c-0.4,1.4-1.3,1.9-2.7,1.7
				c-8.6-1.4-17.2-2.7-25.8-4.1c-2-0.3-2.2-1.7-2-3.3C128,195.5,128.8,190.6,129.5,185.7z"/>
			<path class="st1" d="M149.5,160.2c-4.4-0.7-8.8-1.4-13.3-2.1c-1.3-0.2-2.5-0.7-2.3-2.2c0.2-1.4,1.4-1.7,2.7-1.5
				c8.8,1.4,17.7,2.8,26.5,4.2c1.3,0.2,2.3,0.7,2,2.3c-0.3,1.7-1.5,1.6-2.8,1.4C158.1,161.6,153.8,160.9,149.5,160.2z"/>
			<path class="st7" d="M112.5,219.1c2.5-0.6,4.8,0.4,7.2,0.7c0.9,0.1,0.7,1,0.6,1.6c-0.2,1.8-0.5,3.7-0.7,5.5
				c-1.3,1.6-1.2-0.8-1.9-0.7c-1.2-1-2.5-1.5-4-0.7c-0.7-0.3-1.7,2.4-2.2-0.3c-0.2-0.4-0.5-0.8-0.4-1.4c0-0.5,0.1-1,0.2-1.4
				c0.1-0.5,0.1-0.9,0.2-1.4c0.1-0.5,0.1-0.9,0.3-1.4C111.9,219.4,112.2,219.2,112.5,219.1z"/>
			<path class="st19" d="M113.6,225.6c2.3-1.7,2.3-1.7,4,0.7C116.3,226,115,225.8,113.6,225.6z"/>
			<path class="st12" d="M164.4,224.2c-18.2-2.9-36.5-5.8-54.7-8.7c-1.6-0.2-3,0.1-3.8,1.6c0,0,0,0,0,0c-2.6,3.7-1.2,7.1,3.2,7.9
				c0.8,0.1,1.6,0.3,2.4,0.4c0.1-0.5,0.1-0.9,0.2-1.4c0.1-0.4,0.1-0.9,0.2-1.3l0,0c0.1-0.4,0.1-0.9,0.2-1.3c0.1-0.4,0.1-0.9,0.2-1.3
				l0,0c0-0.1,0.1-0.3,0.1-0.4c1.4,0.3,2.7,0.3,4.1,0.6c2.9,0.5,2.9,0.5,2.6,3.4c-0.1,1.2-0.8,2.5,0.5,3.5c0.9,0.1,1.8,0.2,2.7,0.4
				c11.7,1.8,23.4,3.7,35.1,5.5c1.3,0.2,2.6,0.4,4,0.7c1.2,0.3,1.7-0.2,1.6-1.4c0,0,0,0,0,0c0,0,0.2-0.1,0.2-0.1
				c0-0.5,0.1-0.9,0.1-1.4c0.1-0.5,0.1-0.9,0.2-1.4c0.1-0.4,0.2-0.9,0.2-1.3c0.1-0.5,0.1-0.9,0.2-1.4c0-0.3,0.1-0.6,0.1-0.9
				c0,0,0,0,0,0C164.1,225.3,164.2,224.7,164.4,224.2z"/>
		</g>
	</g>
</g>
</svg>
