<?xml version="1.0" encoding="utf-8"?>
<!-- Generator: Adobe Illustrator 24.2.2, SVG Export Plug-In . SVG Version: 6.00 Build 0)  -->
<svg version="1.1" xmlns="http://www.w3.org/2000/svg" xmlns:xlink="http://www.w3.org/1999/xlink" x="0px" y="0px"
	 viewBox="0 0 500 492.4" style="enable-background:new 0 0 500 492.4;" xml:space="preserve">
<style type="text/css">
	.st0{fill:#FFFFFF;}
	.st1{fill:#CCD7F3;}
	.st2{fill:#ECECF0;}
	.st3{fill:#CDB299;}
	.st4{fill:#BEA38D;}
	.st5{fill:#92806D;}
	.st6{fill:#656FCB;}
	.st7{fill:#FD4D0A;}
	.st8{fill:#CAC8B4;}
	.st9{fill:#33479D;}
	.st10{fill:#CC3B30;}
	.st11{fill:#95806D;}
	.st12{fill:#F7F7E0;}
	.st13{fill:#F6F7E0;}
	.st14{fill:#CDB098;}
	.st15{fill:#AD9680;}
	.st16{fill:#ADC3F4;}
	.st17{fill:#7B88D0;}
	.st18{fill:#877EF0;}
	.st19{fill:#E4EAE6;}
	.st20{fill:#E0E3CD;}
</style>
<g id="BACKGROUND">
</g>
<g id="OBJECTS">
	<g>
		<g>
			<path class="st13" d="M355.8,143.3c0.6-1.8,1.6-3.3,3.4-4.3c12.1-6.8,24.3-13.6,36.4-20.5c1.3-0.7,1.9-0.6,2.5,0.6
				c1.1,0.8,1.8,1.9,2.5,3.1c9.5,17,19.1,33.9,28.7,50.8c0.7,1.1,1.5,2.3,1.3,3.7c-0.4,1.2-1.5,1.6-2.4,2.2
				c-11,6.3-22,12.4-33.1,18.7c-2.5,1.4-4.9,2.9-5.3,6.1c0,0.3-0.3,0.5-0.6,0.7c-1.4-0.2-1.7-1.5-2.3-2.5
				c-6.4-11.1-12.6-22.3-18.9-33.4c-3.5-6.1-7-12.3-10.4-18.5c-0.7-1.3-1.5-2.6-1.8-4C355.3,145.1,355.3,144.2,355.8,143.3z"/>
			<path class="st13" d="M346.1,146.6c1-0.8,2.1-1.4,3.4-1.9c0.5,0.2,0.8,0.6,1,1.1c6.2,11.4,12.7,22.6,19.1,33.9
				c4,7.1,8.1,14.1,12,21.2c0.6,1.1,1.1,2.1,0.6,3.4c-0.5,0.9-1.3,1.4-2.2,1.8c-10.9,6.2-21.8,12.3-32.8,18.4
				c-1.1,0.6-2.2,1.6-3.7,0.9c-1.7-1.6-2.6-3.8-3.7-5.8c-9.1-16.1-18.2-32.2-27.2-48.3c-0.6-1.1-1.3-2.2-1.3-3.5
				c-0.2-0.7-1-1.3,0.2-2c9.7-5.4,19.4-10.8,29.1-16.3c0.7,0.1,1.1,0.7,1.4,1.3c2.1,3.7,4.3,7.4,6.4,11.2c0.4,0.7,0.8,1.5,0.6,2.3
				c-0.4,1.1-1.4,1.5-2.3,2c-6.7,3.8-13.4,7.5-20,11.4c6.5-3.6,13-7.2,19.5-10.9c1.1-0.6,2.1-1.5,3.5-1.4c1.3,0.7,1.8,1.8,1.8,3.2
				c-1.3,2-3.5,2.7-5.4,3.8c-5.7,3.1-11.2,6.4-16.9,9.6c5.9-3.2,11.8-6.5,17.7-9.8c1.7-0.9,3.2-2.1,5.2-2.5c1.3,0.7,1.9,1.8,1.8,3.2
				c-0.6,1.4-1.9,1.9-3,2.5c-6.1,3.5-12.2,6.9-18.3,10.3c-0.3,0.1-0.5,0.3-0.8,0.7c6.5-3.6,12.8-7.3,19.2-10.8
				c1.2-0.6,2.2-1.6,3.7-1.4c1.2,0.8,1.8,1.8,1.7,3.2c-0.9,1.4-2.4,2-3.7,2.7c-5.7,3.1-11.2,6.4-16.9,9.5c-0.5,0.3-1,0.5-1.7,1.2
				c6.9-3.8,13.3-7.6,19.9-11.2c1-0.5,1.9-1.3,3.1-1.2c1.3,0.7,1.8,1.8,1.7,3.2c-0.7,1.4-2.1,1.9-3.3,2.6
				c-6.3,3.6-12.7,7.1-18.9,10.8c6.8-3.7,13.5-7.6,20.2-11.3c0.8-0.5,1.6-1.1,2.7-1c1.2,0.7,1.9,1.7,1.8,3.2c-0.4,1-1.2,1.4-2.1,1.9
				c-6.8,3.9-13.6,7.6-20.3,11.6c6.2-3.3,12.3-6.8,18.4-10.2c1.5-0.8,2.8-2,4.6-2c1,0.8,2.4,1.3,3,2.6c-0.3,0.8-1.1,1.2-1.8,1.6
				c-7.1,4-14.3,8-21.3,12.1c8.6-4.7,17.1-9.6,25.7-14.3c0.7-0.2,1.3-0.2,2-0.1c-2.9-4.8-5.6-9.7-8.3-14.5
				c-4.7-8.3-9.4-16.6-14-24.8C346.5,148.7,345.8,147.8,346.1,146.6z"/>
			<path class="st6" d="M311.3,167.9c7,12.3,14,24.7,21,37c3.8,6.7,7.6,13.5,11.4,20.2c1,1.5,2.2,0.8,3.3,0.2
				c3.8-2,7.5-4.2,11.3-6.3c7-3.9,14-7.9,21-11.9c2.2-1.3,4.5-1.8,7.1-1.1c2.2,0.6,4.8-1,5.4-3.2c0.6-2.3,1.9-3.8,3.9-4.9
				c10.7-6.1,21.4-12,32.1-18.2c1.2-0.7,2.7-1.1,2.5-3c-8.6-15.4-17.3-30.7-25.9-46.1c-2.1-3.8-4.2-7.7-6.3-11.5
				c1.9-1.4,3-0.9,4.1,1.1c10.4,18.7,20.9,37.3,31.4,55.9c1.4,2.4,1.3,2.7-1.2,4.1c-11,6.2-22,12.4-33.1,18.6
				c-1.7,0.9-2.6,1.8-2.2,3.9c0.4,2-0.5,3.8-2.5,4.9c-1.9,1.1-3.8,2.3-5.8,3.3c-1.8,0.9-4.7,0.5-6-1.1c-0.8-1.1-1.4-0.9-2.4-0.3
				c-6.7,3.8-13.3,7.6-20,11.3c-4.9,2.7-9.8,5.4-14.6,8.2c-2,1.2-2.9,0.8-4-1.2c-4-7.2-8.1-14.4-12.2-21.6
				c-6.4-11.3-12.7-22.6-19.2-33.8C309.2,170.4,309.1,169,311.3,167.9z"/>
			<path class="st20" d="M381.8,204.2c0.2-0.9-0.1-1.7-0.6-2.5c-5.2-9.4-10.7-18.7-15.8-28.1c-4.5-8.3-9.4-16.4-14.1-24.6
				c-0.8-1.4-1.4-2.8-1.8-4.3c1.4-1,2.9-0.6,4.4-0.3c1.2-0.5,1.6,0.6,2.2,1.1c2.8,5.5,5.9,10.8,8.9,16.2c3.3,5.8,6.6,11.6,9.8,17.4
				c4.3,7.7,8.7,15.3,13,23c0.4,0.8,0.9,1.5,1.4,2.3c0.3,0.8-0.4,0.7-0.7,0.5c-2-1-4.1-1-6.2-0.5
				C382.2,204.5,381.9,204.4,381.8,204.2z"/>
			<path class="st6" d="M356.1,145.5c-1,0.2-1.4-0.9-2.2-1.1c0.4-0.8,1.3-0.7,1.9-1C355.9,144.1,356,144.8,356.1,145.5z"/>
			<path class="st20" d="M381.8,204.2c2.5-1.2,4.9-1.4,7.2,0.4c0,0,0.1,0,0.2,0c0,0,0-0.1,0.1-0.2c-0.2-3.1,1.3-5.1,4-6.6
				c11.9-6.6,23.6-13.3,35.4-20c0.6-0.3,1.1-0.8,1.6-1.1c1.4,1.5,0.4,2.2-0.9,3c-11.3,6.3-22.6,12.7-33.9,19.1
				c-1.8,1-2.8,2.4-3.1,4.4c-0.4,2.3-4.1,4.4-6.2,3.6c-1.9-0.8-3.7-0.6-5.6,0.4c-11.2,6.3-22.5,12.6-33.6,19c-1.8,1.1-2.7,1-3.3-1
				c0.7,0.6,1.3,0,1.8-0.3c11.9-6.7,23.8-13.4,35.7-20.1C381.4,204.5,381.6,204.4,381.8,204.2z"/>
			<path class="st20" d="M342.8,156.6c0.5,0.8,1.3,1.5-0.2,2.4c-6.8,3.8-13.7,7.6-20.5,11.5c-0.9,0.5-1.4,0.5-2-0.4
				c-0.6-1-0.1-1.5,0.7-2c6.7-3.8,13.5-7.6,20.2-11.4C341.5,156.3,342.1,155.9,342.8,156.6z"/>
			<path class="st20" d="M376,195c0.7,1.1-0.2,1.4-0.9,1.8c-4,2.3-8,4.6-12,6.8c-5.5,3.1-11,6.2-16.5,9.3c-0.5,0.3-1.2,1.3-1.8,0.2
				c-0.6-1.1,0.6-1.2,1.1-1.5c9.4-5.3,18.8-10.6,28.2-15.9C374.6,195.3,375.2,194.8,376,195z"/>
			<path class="st20" d="M342.3,207.9c2.5-1.4,4.8-2.8,7.1-4.1c7.5-4.2,15-8.4,22.6-12.6c0.5-0.3,1.1-1.1,1.7-0.2
				c0.6,0.9-0.3,1.2-0.8,1.5c-8.4,4.8-16.8,9.5-25.2,14.3c-1.4,0.8-2.7,1.5-4.1,2.3c-0.4,0.2-0.8,0.5-1.2,0
				C342,208.5,342,208.1,342.3,207.9z"/>
			<path class="st20" d="M378.5,199.3c0.7,1.2-0.4,1.4-1,1.8c-3.8,2.1-7.5,4.2-11.3,6.4c-5.6,3.2-11.3,6.3-17,9.5
				c-0.6,0.3-1.4,1.2-1.9,0.3c-0.6-1,0.6-1.3,1.2-1.7c9.4-5.3,18.8-10.6,28.2-15.9C377.3,199.5,377.8,198.7,378.5,199.3z"/>
			<path class="st20" d="M364.8,189.4c0.9-0.2,1.9-0.1,2.8,0.2c-8.6,4.9-17.2,9.8-25.8,14.6c-0.5,0.3-1.3,1-1.7,0.2
				c-0.5-0.9,0.5-1.2,1.1-1.6C349,198.4,356.9,193.9,364.8,189.4z"/>
			<path class="st20" d="M360.9,185.8c0.3,0.5,0.6,1,0.9,1.5c-7.1,3.9-14.2,7.9-21.2,11.8c-0.6,0.3-1.2,0.6-1.8,0.9
				c-0.5,0.3-1,0.9-1.5,0.1c-0.5-0.8,0.2-1,0.7-1.3c3-1.7,6.1-3.4,9.1-5.2C351.8,191.1,356.3,188.5,360.9,185.8z"/>
			<path class="st20" d="M348.9,164.5c0.3,0.4,0.5,0.9,0.8,1.3c-7.6,4.3-15.1,8.6-22.7,12.9c-0.6,0.3-1.1,1-1.7,0.1
				c-0.5-0.9,0.3-1.1,0.9-1.5C333.7,173,341.3,168.7,348.9,164.5z"/>
			<path class="st20" d="M356.2,177.4c0.3,0.4,0.5,0.9,0.8,1.3c-7.5,4.2-15,8.5-22.5,12.7c-0.6,0.3-1.3,0.9-1.7,0.1
				c-0.5-0.9,0.4-1.1,1-1.4C341.1,185.8,348.6,181.6,356.2,177.4z"/>
			<path class="st20" d="M351.2,168.7c0.2,0.4,0.5,0.9,0.7,1.3c-6,3.5-12.1,7-18.1,10.4c-1.5,0.8-3,1.7-4.5,2.5
				c-0.5,0.3-1.1,1.1-1.7,0.1c-0.5-0.9,0.4-1.2,0.9-1.4c4.6-2.6,9.2-5.2,13.8-7.8C345.3,172.1,348.3,170.4,351.2,168.7z"/>
			<path class="st20" d="M353.6,172.9c0.3,0.5,0.6,1,0.9,1.5c-7.4,4.2-14.9,8.3-22.3,12.5c-0.6,0.3-1.4,1.2-1.9,0.3
				c-0.5-0.9,0.5-1.2,1.1-1.6c7.1-4,14.2-8.1,21.3-12.1C353,173.3,353.3,173.1,353.6,172.9z"/>
			<path class="st20" d="M358.5,181.6c0.3,0.4,0.5,0.9,0.8,1.3c-7.6,4.3-15.2,8.7-22.8,13c-0.5,0.3-1,0.8-1.5,0
				c-0.6-1.1,0.6-1.3,1.1-1.6c6.3-3.6,12.7-7.2,19-10.8C356.2,183,357.4,182.3,358.5,181.6z"/>
			<path class="st20" d="M322.9,173.5c0.8-0.5,1.6-1,2.5-1.5c6.1-3.4,12.2-6.9,18.3-10.2c0.5-0.3,1.2-1.4,1.8-0.3
				c0.4,0.8-0.5,1.3-1.1,1.6c-6.7,3.7-13.3,7.5-20,11.2c-0.4,0.2-0.9,1-1.5,0.3C322.5,174.3,322.3,173.8,322.9,173.5z"/>
			<path class="st7" d="M346.1,146.6c8.1,14.3,16.1,28.5,24.2,42.8c-0.5,0.3-2.2,1-4.3,0.6c-2.3-0.4-3.6-1.9-4-2.3
				c-2.5-4-5.1-8.1-7.6-12.4c-5.2-8.8-9.7-17.4-13.7-25.7C342.4,148.4,344.2,147.4,346.1,146.6z"/>
		</g>
		<g>
			<path class="st6" d="M475.8,243c-8.6-7-17.1-14-25.6-21l0,0c-4.3-3.7-8.6-7.3-13.1-10.6c-1.4-0.7-1.8,0.7-2.4,1.4
				c-5.9,7.3-11.7,14.6-17.5,22c-8.4,10.6-16.6,21.3-25.2,31.8c-0.8,1-1.8,2-1.6,3.5c0.1,0.4,0.3,0.9,0.6,1.1c3.6,3.1,7.2,6.1,11,9
				c0.5,0.4,1,0.6,1.6,0.4c0.3,1.2,1.2,2,2.1,2.8c8.2,6.7,16.5,13.3,24.7,20c0.7,0.5,1.3,1.2,2.3,1c14.5-19.3,28.9-38.6,43.4-57.9
				C477.3,244.9,477.1,244,475.8,243z M446.1,274.3c-2.5,3.1-4.7,6.4-7.1,9.6c-2,2.8-2.3,2.9-5,0.8c-5.5-4.3-10.9-8.8-16.3-13.2
				c-1.3-1-2.5-2.2-4.1-2.7c0-0.9-0.9-1.4-1.5-1.9c-1.8-1.7-3.8-3.1-5.7-4.7c-1.5-1.2-1.7-2.3-0.4-3.8c2.2-2.5,4-5.1,6.1-7.7
				c4.1-5,4.1-4.9,9.1-0.8c1.3,1,2.3,2.6,4.2,2.5c0.1,1.5,1.4,2.2,2.4,3c5.9,4.8,11.7,9.7,17.7,14.4
				C447.1,271.3,447.5,272.5,446.1,274.3z"/>
			<path class="st9" d="M434.4,209.1c-0.4-0.4-0.7-0.8-1.1-1.1c-4.8-4-7.1-3.8-10.9,1.2c-5.3,6.6-10.5,13.3-15.7,20
				c-9.1,11.6-18.2,23.2-27.3,34.8c0,0.5,0.3,0.9,0.7,0.9c2.6,0,4.7,1.5,7,2.4c0.2,0,0.3,0,0.5,0c1,1,2.3,1.6,3.3,2.7
				c5.5-7,11-14,16.5-21c4.2-5.4,8.5-10.8,12.7-16.2c5.7-7.2,11.4-14.3,17.1-21.4C436.3,210.4,435.4,209.7,434.4,209.1z"/>
			<path class="st13" d="M383.3,267.4c-1.3-1.1-2.6-1-3.7,0.2c-0.2,0-0.4,0.1-0.7,0.1c-3.7,2.5-4,5.2-0.7,8.1c2.6,2.3,5.4,4.3,8,6.5
				c11.4,9.3,22.9,18.7,34.4,27.9c1.1,0.9,2.1,2.2,3.9,1.8c1.3-1.7,2.5-3.3,3.8-5c0.5-0.6,1-1.2,1.5-1.8
				C414.4,292.7,398.9,280,383.3,267.4z"/>
			<path class="st7" d="M413.5,269.5c-2.9-2.4-5.8-4.9-8.7-7.2c-1.3-1-1.6-1.9-0.5-3.3c3.3-4.1,6.6-8.2,9.8-12.4
				c1.3-1.7,2.3-1.7,3.8-0.3c2.4,2.2,5,4.1,7.6,6.1c7.2,6,14.3,12,21.6,17.8c1.5,1.2,1.4,2,0.4,3.4c-3.2,4.2-6.4,8.5-9.4,12.8
				c-1.2,1.7-1.9,1.4-3.3,0.3C427.9,280.9,420.7,275.2,413.5,269.5z"/>
			<path class="st6" d="M391.1,288.7c-4.2-4.2-17.4-12.1-17-16.7c0.9-4.6,5.2-10.3,10.5-7.1c7.7,4.9,13.5,11.2,21.1,17
				c8.6,8.4,20.4,14.4,26.7,23c-4,3.2-13.2-8.7-16.4-10c-10.2-8.2-19.8-16.1-30-24.3c-1.8-1.3-3.4-3.7-6-2.8
				c-8.1,4.8,1.4,8.7,5.3,12.5c13.4,11.6,27.9,21.2,40,33.3C425.8,319.8,390.5,289.4,391.1,288.7z"/>
		</g>
	</g>
</g>
</svg>
