<?xml version="1.0" encoding="utf-8"?>
<!-- Generator: Adobe Illustrator 24.2.2, SVG Export Plug-In . SVG Version: 6.00 Build 0)  -->
<svg version="1.1" xmlns="http://www.w3.org/2000/svg" xmlns:xlink="http://www.w3.org/1999/xlink" x="0px" y="0px"
	 viewBox="0 0 502.3 487.5" style="enable-background:new 0 0 502.3 487.5;" xml:space="preserve">
<style type="text/css">
	.st0{fill:#FFFFFF;}
	.st1{fill:#CCD7F3;}
	.st2{fill:#ECECF0;}
	.st3{fill:#CDB299;}
	.st4{fill:#BEA38D;}
	.st5{fill:#92806D;}
	.st6{fill:#656FCB;}
	.st7{fill:#FD4D0A;}
	.st8{fill:#CAC8B4;}
	.st9{fill:#33479D;}
	.st10{fill:#CC3B30;}
	.st11{fill:#95806D;}
	.st12{fill:#F7F7E0;}
	.st13{fill:#F6F7E0;}
	.st14{fill:#CDB098;}
	.st15{fill:#AD9680;}
	.st16{fill:#ADC3F4;}
	.st17{fill:#7B88D0;}
	.st18{fill:#877EF0;}
	.st19{fill:#E4EAE6;}
	.st20{fill:#E0E3CD;}
</style>
<g id="BACKGROUND">
</g>
<g id="OBJECTS">
	<g>
		<ellipse class="st1" cx="251.1" cy="405.7" rx="201.2" ry="17.5"/>
		<g>
			<g>
				<path class="st2" d="M160,181.8c1.7,1.2,2,3.7,5.1,4.3c-3.1,0.8-3.5,3.1-5.1,4.5c-0.1-0.3-0.1-0.6-0.2-0.9
					c-0.1-0.2-0.2-0.4-0.3-0.7c0,0,0.1,0,0.1,0c-0.4-1.4-1.3-2.3-2.8-2.5c-0.1-0.3-0.1-0.5-0.2-0.8
					C158.8,185.3,159.8,183.9,160,181.8L160,181.8z"/>
				<path class="st2" d="M255.1,69c-2.3,0.8-3.1,2.5-3.9,4.4c-0.4-2-1.2-3.5-3.3-4.3c1.8-1,3-2.2,3.3-4.7
					C251.9,66.6,252.9,68.1,255.1,69z"/>
				<path class="st2" d="M195.8,119.6c0.2-0.4,0.7-0.9-0.1-1.3c1.1-0.8,1.7-2,2.1-3.9c0.7,2.2,1.6,3.8,3.9,4.5
					c-2.2,0.9-3.2,2.3-3.8,4.9C197.4,121.7,196.8,120.5,195.8,119.6z"/>
				<path class="st2" d="M193.1,294.9c0.6,2.6,2.4,4,5.2,5.1c-3.6,1.1-5.1,3.7-6,7.1c-0.3-1.5-0.5-2.6-1.1-3.6
					c-0.6-1.4-2-1.9-3.3-2.4c-0.6-0.2-0.9-0.7-0.9-1.2c0-1,0.7-0.2,1.1-0.4c2.8-0.9,3.6-3.3,4.2-6.2
					C192.7,294,192.9,294.4,193.1,294.9z"/>
				<path class="st2" d="M223.1,157c-3.3,0.8-4.3,3.4-5.1,6.3c-0.7-1.5-0.6-3.3-2-4.4c-0.3-0.3-0.5-0.6-0.8-0.9
					c-0.4-0.6-1-0.9-1.8-1c-0.5-0.2-1-0.3-1.5-0.5l0.1-0.1c0,0-0.1-0.1-0.1-0.1c0.5-0.2,1-0.3,1.5-0.5c0.9-0.1,1.6-0.6,2.2-1.3
					c0.2-0.3,0.4-0.5,0.6-0.8c0,0,0,0.1,0,0.1c0.2-0.4,0.4-0.7,0.6-1.1c0,0-0.1,0-0.1,0c0.6-0.5,0.7-1.1,0.7-1.8
					c0.2-0.3,0.3-0.6,0.5-1.1c0.8,1.4,0.7,3.2,2.3,4l0,0C220.4,155.8,223,155.2,223.1,157z"/>
				<path class="st2" d="M297.4,116.3c-0.3,0.4-0.6,0.9-0.8,1.3c-0.2,0.5-0.3,1-0.6,1.9c-1-2.1-1.2-4.4-3.3-5.3
					c-0.3-0.4-0.6-0.5-1.1-0.5c0,0,0,0,0,0c0.5-0.5-2.2-0.4-0.2-1.3c1.9-0.9,3.4-2.3,3.5-4.6c0.5-0.1,0.6-0.5,0.5-0.9
					c0.3,0,0.8-0.1,0.9,0.4c0.6,3,2.8,4.5,5.3,5.8C299.8,113.6,298.7,115,297.4,116.3z"/>
				<path class="st2" d="M177.9,264.7c-0.5-0.1-0.7-0.4-0.7-0.9c3.3-0.4,4.3-2.9,5.3-6.2c1,3.3,2.5,5.7,6.2,6.5
					c-3.4,1.1-5.2,3-5.7,6c-0.7,0.5-0.7,0.5-1.1-0.8C181.4,267,180.1,265.5,177.9,264.7z"/>
				<path class="st2" d="M295.4,202.6c-2.7,0.8-3.3,3.2-4.2,5.7c-1.6-2.5-1.8-6.1-5.9-6.2c3.6-1.1,5.2-3.4,5.8-7.4
					c1.1,3.6,2.3,6.3,5.8,6.8C296.4,201.9,295.9,202.3,295.4,202.6z"/>
				<path class="st2" d="M216.9,235.4c-0.3,0.7-0.6,1.5-1,2.4c-0.7-3.2-1.9-5.7-5.7-6.7c1.8-0.7,3.2-1.2,4-2.6
					c1.1-1,1.2-2.5,1.8-4.1c0.8,3.1,2.3,5.5,5.6,6.6C219.3,232.1,217.5,233.2,216.9,235.4z"/>
				<path class="st2" d="M248.4,216.9c-2.5,1.1-3.6,2.6-4.3,5.3c-0.7-2.6-1.6-4.3-4.4-5.2c2.7-1,3.8-2.5,4.3-4.7
					C244.7,214.4,245.8,216,248.4,216.9z"/>
				<path class="st2" d="M288,156.2c-0.2,0.5-0.6,0.8-1,1c-1.7,0.7-2.1,2.4-3,3.8c-0.3-0.4-0.5-0.8-0.8-1.1
					c-0.1-1.9-1.6-2.6-3.4-3.5c2.4-0.9,3.8-2.5,3.9-4.9c0.1-0.1,0.2-0.2,0.2-0.3C284.5,153.6,285.4,155.6,288,156.2z"/>
				<path class="st2" d="M338.2,251.6c1.2-0.9,0.9-2.6,1.8-3.9c0.7,3.2,2.2,5.5,5.7,6.5c-2.8,1.1-4.7,2.7-5.3,5.5
					c-0.4,1.1-0.8,1.1-1-0.1c-0.5-2.8-2.3-4.5-5-5.3C335.9,253.5,337.5,253.1,338.2,251.6z"/>
				<path class="st2" d="M318.7,282.7c-2.7,1-3.8,2.6-4.6,5.1c-0.7-2.4-1.6-4.2-4.3-5c2.6-0.9,3.8-2.5,4.3-5.5
					C314.8,280.2,315.8,281.9,318.7,282.7z"/>
				<path class="st2" d="M196.7,199.1c-2.5,0.9-3.6,2.7-4.4,5.3c-0.5-2.7-1.6-4.5-4.4-5.3c2.8-0.8,3.9-2.5,4.4-5.1
					C193.2,196.4,194.2,198.2,196.7,199.1z"/>
				<path class="st2" d="M292.1,237.7c2-1,3.4-2,3.7-4.1c0.8,1.8,1.7,3.2,3.8,3.9c-2,1-3.1,2.3-3.7,4.8
					C295.3,239.8,294.5,238.2,292.1,237.7z"/>
				<path class="st2" d="M233.6,300.2C233.6,300.2,233.6,300.3,233.6,300.2c-1.9,0.5-2.9,2-3.6,4.6c-0.5-2.6-1.3-4.1-3.6-4.8
					c1.9-1,3.1-2.1,3.7-4C230.6,298.1,232.2,299.1,233.6,300.2z"/>
				<path class="st2" d="M252.8,175.3c0.8,2.1,1.6,3.5,4.3,4.2c-2.5,0.7-3.5,2.1-4.2,4.2c-0.8-1.9-1.4-3.6-4.3-4.1
					C251.1,178.9,252.1,177.5,252.8,175.3z"/>
				<path class="st2" d="M256,348.1c-0.5-1.7-2.6-1.8-3.2-3.4c2.5-0.5,3.4-2.3,3.8-4.8c1,2.1,1.7,4.2,4.7,5
					c-2.7,0.9-3.7,2.6-4.5,4.9C256.4,349,256.2,348.6,256,348.1z"/>
				<path class="st2" d="M260.6,273c-0.2,0.4-0.3,0.8-0.7,1.8c-0.8-3.6-2-6.2-6.2-7c4-0.8,5.5-3.1,6.2-6.3c0.9,3,2.5,5.2,5.4,6.3
					c0,0.1-0.1,0.2-0.1,0.2c-0.1,0.1-0.1,0.1-0.2,0.2C262.6,268.8,261.3,270.6,260.6,273z"/>
				<path class="st2" d="M346.7,221.3c0-2.4-2.2-3.1-3.5-4.7c2.5-0.3,3.1-2.3,3.8-4.5c0.8,2.1,1.7,4,4.4,4.8
					c-2.8,0.9-2.7,3.5-4.4,4.7c0,0-0.1-0.1-0.2-0.1C346.8,221.4,346.8,221.3,346.7,221.3z"/>
				<path class="st2" d="M308.5,328.1c-0.5-3-1.6-4.7-4.3-5.5c2.7-0.8,3.8-2.4,4.3-5.2c0.8,2.6,1.9,4.4,4.5,5.2
					C310.4,323.6,309.3,325.4,308.5,328.1z"/>
				<g>
					<path class="st1" d="M177.6,168.3c1.7-0.6,1.2-2.7,2.5-3.5c0.8-1.2,1.9-1.8,3.2-2.1c-0.1-0.9-1.1-0.8-1.5-1.4
						c-2.5-1-3-3.5-3.9-6.2c-0.6,3.9-2.1,6.4-6.2,7.3C175.5,163.3,177.1,165.3,177.6,168.3z"/>
					<path class="st1" d="M146.4,226.5c-0.3,0.6-0.4,1-0.6,1.4c-0.5,1.7-1.9,2.5-3.5,3.3c2.9,0.4,3.1,3.1,4.5,4.6
						c0.3-1.5,0.7-2.9,2.2-3.6c0.2-0.1,0.3-0.3,0.5-0.4c0.4-0.2,0.8-0.3,1.1-0.5c-0.1-0.2-0.1-0.5-0.2-0.7
						C148,230.5,147.7,228,146.4,226.5z"/>
					<path class="st1" d="M233.5,90.4c0.9-2.3,2-4.1,4.7-5.1c-2.9-0.7-3.9-2.6-4.6-5c-0.6,2.5-1.5,4.4-4.1,5.1
						C232,86,232.7,88,233.5,90.4z"/>
					<path class="st1" d="M192.6,123.9c0.6-2.2,1.4-3.7,3.2-4.3c0.2-0.4,0.7-0.9-0.1-1.3c-2.1-0.6-2.5-2.6-3.4-4.5
						c-0.5,2.4-1.4,4.3-3.9,5.1C190.9,119.7,191.5,121.8,192.6,123.9z"/>
					<path class="st1" d="M339.4,259.6c-0.5-2.8-2.3-4.5-5-5.3c1.5-0.8,3.1-1.2,3.8-2.7c-2.9-5.7-6.2-11-11.2-15.1
						c-7.9-6.5-17-9.8-27.1-10.3c-0.6,0-1.2-0.1-1.9-0.1c-4.8,0.3-9.5,0.5-14.2,1.7c-5,1.3-9.9,2.6-14.7,4.5
						c-9.2,3.7-18.3,8-28.2,9.6c-8.9,1.4-17.5,1-24.1-6.5c-0.3,0.7-0.6,1.5-1,2.4c-0.7-3.2-1.9-5.7-5.7-6.7c1.8-0.7,3.2-1.2,4-2.6
						c-1.7-11.1,5.9-23.1,16.5-26c10.2-2.9,20,6,18.1,16.4c-0.8,4.4-4,6.1-8.1,4.5c-1.5-0.6-2.9-1.4-4.1-2.4c-1.1-0.9-2.3-1.8-3.8-3
						c0.2,2.3,1,3.8,1.6,5.3c3.4,7.8,8.3,11,16.8,10.5c7.7-0.5,14.1-3.9,19.7-9c7.4-6.7,10.9-15.3,10.4-25.1
						c-0.4-6.8-3-13.2-6.8-18.9c-6.8-10.4-16-17.8-27.7-22.1c-7.7-2.1-15.6-2.5-23.5-1.6c-3.3,0.8-4.3,3.4-5.1,6.3
						c-0.7-1.5-0.6-3.3-2-4.4c-0.5,0.1-1,0.2-1.5,0.3c-2.1,0.9-4.2,1.8-6.3,2.7c-0.6,0.3-1.1,0.6-1.7,1c-1.4,0.8-2.7,1.6-4.1,2.4
						l-0.1,0c-0.2,0.4-0.5,0.7-1,0.6l0,0.1c-0.2,0.8-0.9,1.1-1.6,1.4c-1,0.9-2,1.7-2.9,2.6c-2.1,2.4-4.2,4.7-6.3,7.1
						c-0.1,0.2-0.3,0.3-0.4,0.5c-2,3.6-3.9,7.2-5.9,10.8c0,0.2,0,0.3-0.1,0.4c-0.5,1.7-1,3.3-1.9,4.8c-0.1,0.4-0.2,0.7-0.3,1.1
						c-0.2,1.1-0.4,2.2-1,3.2c-0.1,0.4-0.1,0.7-0.2,1.1c-0.1,0.5-0.3,1.1-0.4,1.6c-0.1,0.4-0.2,0.7-0.3,1.1c-0.6,4-1.4,8-1.7,12.1
						c-0.6,7.5,0.3,14.9,2.8,22.1c0.1,0.4,0.3,0.7,0.4,1.1l0.1,0.2l-0.1,0.1c-0.2,0.1-0.3,0.2-0.5,0.3c0.2,1.3,2,1.2,2.2,2.5
						c1.8,2.5,3.6,5,5.3,7.5c1.1,0.9,2.2,1.7,3.3,2.7c10.3,8.9,22,13.5,35.7,12.1c1.5-0.6,3.3,0,4.8-0.9c0.4-0.1,0.8-0.2,1.1-0.2
						c0.4,0,0.7-0.1,1.1-0.1c1.8-0.6,3.5-1.2,5.3-1.7c0.4-0.1,0.7-0.3,1.1-0.4c0.1-0.1,0.3-0.2,0.5-0.2c7.7-3.1,15.3-6.3,23.8-6.3
						c12.4,0.1,22.7,9.6,23.8,22c0.8,9-6,16.8-15.1,17.3c-5.9,0.3-11.3-1.3-16.5-3.8c-4.8-2.3-9.5-4.8-14.3-7.2
						c-0.2-0.1-0.4-0.3-0.6-0.4l0,0c-0.7-0.1-1.3-0.4-1.6-1.1c-1.4,0-2.6-0.4-3.7-1.1c-0.5-0.2-1.1-0.4-1.6-0.5
						c-0.3-0.2-0.5-0.3-0.8-0.5c-0.4,0-0.9-0.1-1.3-0.1l-0.2,0l-0.2,0c-1.2,0.1-2.2-0.6-3.2-0.9c-1-0.1-2-0.1-2.9-0.2
						c-8.1-0.9-15.3,1.1-22.1,5.5c-5.2,3.4-8.5,8.2-11.4,13.5c0.6,2.6,2.4,4,5.2,5.1c-3.6,1.1-5.1,3.7-6,7.1
						c-0.3-1.5-0.5-2.6-1.1-3.6c-0.9,6.6,0.1,12.9,3.2,18.9c3.8,7.3,9.5,11.7,18,12.2c4.9,0.3,9.6-0.6,14.3-1.5
						c5.2-1,10.4-2.3,15.8-2.2c6.7-0.8,13.3-0.2,19.6,2.5c10.7,4.5,14.6,14.7,9.9,25.3c-1.8,4.1-4.7,7.5-6.9,11.4
						c0.2,0.2,0.3,0.3,0.5,0.5c16.9-8.8,20.2-27.4,12.6-41.7c-3.3-6.2-9.1-8.6-15.4-10.3c-6.6-1.8-13.5-2.4-19.9-4.8
						c-2.4-0.9-4.8-1.9-6.7-3.8c-2.7-2.7-4.4-5.6-2.6-9.5c-1.9,0.5-2.9,1.9-3.6,4.6c-0.5-2.6-1.3-4.1-3.6-4.8c1.9-1,3.1-2.1,3.7-4
						c0.6,2,2.2,3,3.6,4.1c4.1-4.9,9.3-5.6,15.4-4.8c7.6,1,13.6,4.8,19.7,8.9c4.2,2.8,8.2,6.1,12.9,8.3c3.6,1.7,7.3,2.6,11.2,3.4
						c9.6,0.2,18.8-1.6,27.6-5.4c9.5-4.1,15.9-11,18.9-20.9c3.1-9.9,3.8-19.9,1.3-30C340.1,260.8,339.7,260.8,339.4,259.6z
						 M252.8,175.3c0.8,2.1,1.6,3.5,4.3,4.2c-2.5,0.7-3.5,2.1-4.2,4.2c-0.8-1.9-1.4-3.6-4.3-4.1
						C251.1,178.9,252.1,177.5,252.8,175.3z M192.3,204.4c-0.5-2.7-1.6-4.5-4.4-5.3c2.8-0.8,3.9-2.5,4.4-5.1
						c0.8,2.4,1.9,4.2,4.4,5.1C194.2,200,193.2,201.8,192.3,204.4z M295.9,242.3c-0.7-2.5-1.5-4.2-3.8-4.6c2-1,3.4-2,3.7-4.1
						c0.8,1.8,1.7,3.2,3.8,3.9C297.7,238.5,296.5,239.8,295.9,242.3z M314.1,287.8c-0.7-2.4-1.6-4.2-4.3-5c2.6-0.9,3.8-2.5,4.3-5.5
						c0.8,2.8,1.8,4.6,4.7,5.4C316,283.7,314.9,285.3,314.1,287.8z"/>
					<polygon class="st1" points="240.7,279.2 240.7,279.2 240.7,279.2 					"/>
					<path class="st1" d="M287.4,184.9C287.4,184.9,287.3,184.8,287.4,184.9C287.3,184.8,287.3,184.9,287.4,184.9L287.4,184.9z"/>
					<path class="st1" d="M264,147.3c3.8,6.1,11.4,10.9,19.7,4.3c0.1-0.1,0.2-0.2,0.2-0.3c2.2-2.6,4-5.5,4-9.1
						c0.1-4.5-2.4-6.6-6.8-5.7c-1.7,0.4-3.4,1-5.4,1.5c0.3-2.6,1.5-4.4,3.7-5.3c4.8-2.1,11.3,0.2,13.9,4.8
						c3.1,5.6,2.5,10.2-1.9,14.9c-1.1,1.2-2.4,2.4-3.5,3.7c-0.2,0.5-0.6,0.8-1,1c-0.9,1.7-1.8,3.5-2.8,5.2c-0.2,0.6-0.3,1.2-0.5,1.8
						l0,0.1c0,0-0.1,0.1-0.1,0.1c-1.6,7.3,0.4,14,3.7,20.3c-0.1-1.7-0.3-3.5-0.4-5.2c-0.6-6.7-0.5-13.3,4.4-18.6
						c2.7-2.9,6.1-5,9.3-7.1c6.8-4.5,10.9-10.6,9.7-19.1c-1.2-8.2-5.1-14.8-12.9-18.5c-0.3,0.4-0.6,0.9-0.8,1.3
						c-0.2,0.5-0.3,1-0.6,1.9c-1-2.1-1.2-4.4-3.3-5.3c-0.4-0.2-0.7-0.3-1.1-0.5c0,0,0,0,0,0c-3.6-0.5-7.2-1-10.9-0.6
						c-4.8,0.5-9.2,1.9-12.8,5.2c-5.7,5.1-7.4,11.7-7.3,19C261.4,140.7,262.1,144.2,264,147.3z"/>
					<path class="st1" d="M181.8,269.3c-1.7-1.2-3.2-2.6-3.9-4.6c-0.5-0.1-0.7-0.4-0.7-0.9c-0.6-1.6-1.3-3.2-1.3-4.9
						c-0.2-0.3-0.3-0.8-0.5-0.9c-0.6-0.2-0.3,0.4-0.4,0.7c-0.3,1.8-0.5,3.5-1.7,5c-0.2,0.7-0.3,1.6-0.8,2.2
						c-0.9,1.2-1.4,3.1-3.5,2.8c-0.1,0.3-0.1,0.6-0.2,0.9c-1.5,1.5-3.7,1.4-5.7,2.6c7,1,11.3,6.1,12,13.9
						c1.9-6.7,4.8-12.5,12.7-14.1c-1.9-0.7-3.4-1.3-4.9-1.8C182.3,270.6,182.3,270.6,181.8,269.3z"/>
					<path class="st1" d="M230.4,132.8c5.2,1.5,8,4.5,8.7,9.3c-0.1,0.2-0.3,0.5-0.4,0.7c1.1,1,1.3,0.5,1.6-0.7
						c0.6-3.2,2.3-5.8,5-7.6c1.1-0.7,2.7-0.6,3.5-2c-5.3-1.4-7.8-5-8.7-10.1c0-0.3,0.3-1.2-0.7-0.7c0,0.4-0.1,0.7-0.1,1.1
						C238.7,128,236,131.3,230.4,132.8z"/>
					<path class="st1" d="M351,177.4c-0.1-0.3-0.2-0.7-0.2-1c-0.2-0.5-0.3-1.1-0.5-1.6c-0.3-1.1-0.7-2.1-1-3.2
						c-0.1-0.4-0.3-0.8-0.4-1.1c-0.2-0.4-0.3-0.7-0.5-1.1c-1.1-1.7-2.2-3.4-3.2-5.2c-2.2-2.1-4.3-4.2-7.1-5.6
						c-10.1-5.1-25.2-1.5-32.9,7.5c-5,5.9-6.1,12.4-4.7,19.8c0.9,4.7,1.7,9.6,0.6,14.3c-2,7.9-7.3,13.5-13.5,18.4
						c9.5-2.5,18.9-5.2,26.6-11.9c0,0,0,0,0,0c0.3-0.4,0.6-0.7,0.9-1.1c0.4-0.5,0.8-1,1.2-1.5c1.5-2.7,2.4-5.5,2.7-8.5
						c0-0.4,0-0.7,0-1.1c0-0.7,0-1.4,0-2.1c-0.5-2.9-0.4-5.8,0.6-8.6c0.3-0.7,0.6-1.4,0.9-2.2c0.9-2.1,2.1-3.7,4.4-4.4c0,0,0,0,0,0
						c0.4-0.6,1-0.7,1.6-0.6c0,0,0,0.1,0,0.1c0.2-0.1,0.4-0.3,0.6-0.4c0.9-0.2,1.8-0.3,2.7-0.1c0.6,0,1.2-0.1,1.6,0.4
						c0.4,0.2,0.8,0.4,1.1,0.6c2.8,2,3.3,4.3,1.6,7.6c-0.1,0.7-0.4,1.3-1.1,1.6c-1.9,3-4.3,2.7-6.9,1.1c0,0.3,0,0.7,0,1
						c0.3,0.5,0.3,1.1,0.2,1.6c0.3,1.1,0.5,2.1,0.8,3.2c0.7,0.9,1.3,1.8,2,2.7c0.1,0,0.2,0.1,0.2,0.3c0.9,0.6,1.8,1.1,2.7,1.7
						c2.2,0.7,4.4,1.1,6.8,1c0.4-0.1,0.8-0.1,1.2-0.2c1.4-0.5,2.8-0.9,4.2-1.4c0.2-0.1,0.4-0.2,0.6-0.4c1.6-1.3,3.2-2.6,4.4-4.3
						c0.2-0.4,0.5-0.8,0.7-1.2c1.6-3.7,2-7.6,1.7-11.7C351.1,179.2,351,178.3,351,177.4z"/>
					<path class="st1" d="M324.8,144.7c1.9-4.4,2.3-5,5.9-6.9c-3.4-0.9-5-3.3-5.9-6.4c-0.5,3.5-2.2,5.7-6.2,6.6
						C322.7,138.8,324.1,141.3,324.8,144.7z"/>
					<path class="st1" d="M287.4,184.9C287.4,184.9,287.3,184.9,287.4,184.9c0.1,0.1,0.2,0.3,0.2,0.4
						C287.5,185.2,287.4,185,287.4,184.9z"/>
					<path class="st1" d="M252.8,344.7c-0.6-1.2-1.1-2.4-1.7-3.6c-0.4,3.1-1.9,5.6-5.7,6.8c4,1,5.2,3.5,5.9,7.3
						c0.7-3.6,2.1-5.8,4.8-7.1C255.5,346.4,253.4,346.3,252.8,344.7z"/>
					<path class="st1" d="M269.6,271.8c-2.2-0.9-3.7-1.9-4.6-3.7c-2.4,0.7-3.8,2.5-4.4,4.9c2.2,1,2.4,3.3,3.5,5.5
						C264.9,275.2,266.6,273.1,269.6,271.8z"/>
					<path class="st1" d="M343.3,216.6c-1.8-2.3-2.9-4.9-3.1-7.9c0,0,0-0.1,0-0.1c-0.3,0.1-0.6,0.1-0.8,0.2c0.1,4-1.1,7.4-4.8,9.6
						c-0.7,0.3-1.5,0.7-2.2,1c-0.6,0.2-1.1,0.4-2,0.8c1.6,0.5,2.9,0.6,3.8,1.5c4.1,1.9,4.7,5.9,5.8,10c1-4.7,2.5-8.5,6.7-10.5
						C346.8,218.8,344.5,218.1,343.3,216.6z"/>
					<path class="st1" d="M368.1,235.5c-0.3,2.7-1.7,3.9-3.8,5c2.4,0.8,3.2,2.6,4.1,4.7c0.8-2.2,1.6-4,4.3-4.7
						C370.3,239.5,369.3,237.9,368.1,235.5z"/>
				</g>
				<path class="st2" d="M358.7,172.1c0.6,3.3,1.9,5.9,5.3,7.1c-0.1,1-1.2,0.8-1.7,1.4c-1.1,0.6-2,1.4-2.3,2.6
					c-0.7,0.8-0.7,2-1.2,3.2c-0.9-3.2-1.8-6.2-5.6-6.5c0-0.2,0-0.4-0.1-0.6c0.6-0.1,1.4,0,1.8-0.7c0.2-0.2,0.4-0.3,0.5-0.5
					c1.1,0,1.6-0.6,1.7-1.7c1-0.8,1.2-2,1.1-3.2C358.7,173,358.7,172.5,358.7,172.1z"/>
			</g>
			<g>
				<g>
					<path class="st3" d="M430.3,395.9c-0.3-0.9-0.5-1.8-0.8-2.8c-1.2,0.6-2.5,0.2-3.7,0.1c0.4,0,0.9,0,1.3,0c0.8,0,1.6,0.1,2.3-0.5
						c-0.9-2-2-3.8-2.6-5.9c-1-3.4-4.2-5.3-5.5-8.5c-0.8-2-1.6-4-3.5-5.4c-0.8-0.6-1.7-0.9-2.7-1c-11.2-1.2-22.2-3.3-33.2-5.3
						c-6.1-1-12.1-2.4-18.2-3.6c-12.2-2.4-24.5-4.1-37-4.1c-2.9,0-5.9,0-8.8,0c-3.2-0.1-6.4,0.5-9.5,1c-14.2,2-27.3,6.5-38.4,15.9
						c-2.8,2.4-5.8,4.7-7.4,8.2c0,0.8,0.6,1.2,1.2,1.5c4.9,2.4,8.3,6.4,10.9,11.1c0.5,0.8,0.9,1.7,2,2c1.5,0.3,3,0,4.5-0.4
						c11.7-3,23.6-4,35.6-4.3c8.5-0.2,16.9,0.6,25.4,1.4c10.8,1.1,21.6,2.1,32.4,3c1.9,0,3.7,0.5,5.6,0.5c15.9,0,31.8,0,47.6,0
						c1,0,2.1,0.1,2.9-0.7C430.6,397.4,430.5,396.6,430.3,395.9z"/>
					<path class="st3" d="M234.3,361.1c-9.3-4.4-19.3-5.5-29.4-6.1c-9.3-0.5-18.6,0.3-27.9,1.5c-16.4,2.2-32.5,6.2-48.7,9.6
						c-10.4,2.2-20.9,4-31.5,5.7c-1.4,0.2-2.8,0.3-4,1.1c-1.2,1-1.6,2.5-2.3,3.7c-1.2,2-1.9,4.6-3.6,5.8c-1.9,1.4-2.5,3.1-3.2,5
						c-1,2.6-2,5.3-3,7.9c0.6,0.6,1.4,0.4,2.1,0.4c0.3,0,0.6,0,0.9,0c-0.5,0-1.1,0-1.6,0c-0.7,0-1.4,0-1.9,0.5
						c-0.1,0.6-0.3,1.2-0.4,1.8c1,1,2.4,0.7,3.6,0.7c12.3-0.1,24.7,0.4,37-0.5c6.8-0.6,13.6-0.9,20.5-1.3c7.2-0.4,14.4-1,21.6-1.6
						c9.9-0.7,19.9-1.3,29.8-1.6c6.2-0.2,12.3,0.4,18.5,0.8c6.7,0.5,13.3,1.4,19.7,3.4c0.8,0.1,1.5,0.4,2.3,0.2
						c1-0.4,1.3-1.4,1.7-2.3c3.8-7.2,9.6-11.4,17.8-12.3c1.1-0.1,2.4,0,3.2-1.2c0-1.1-0.5-2-1-2.9
						C249.8,371.3,242.9,365.2,234.3,361.1z"/>
				</g>
				<path class="st4" d="M334.1,305.5c6.5-4.6,13.5-8.5,20.5-12.1c6.1-3.1,12.3-6,18.4-9c2.3-0.9,4.5-1.7,7.2-2.7
					c-1.4,5.1-2.8,9.9-4.1,14.6c-0.4,1.6-2,1.2-3,1.4c-7.1,1.2-14.2,2.7-21.2,4.4c-6,1.4-11.9,3.1-17.8,5.1
					c-0.6,0.2-1.2,0.6-1.9,0.4C332.1,306.3,333.8,306.4,334.1,305.5z"/>
				<path class="st5" d="M334.1,305.5c0.1,1.3-1.7,1.1-1.8,2.2c-1,0.6-2,1.2-3.1,1.4C330.5,307.4,332.4,306.6,334.1,305.5z"/>
				<path class="st6" d="M276.3,398.2c1.5-0.1,3.1,0,4.5-0.5c26.2-0.8,52.4-0.1,78.6-0.3c3.9,0,7.9,0.1,11.8,0.5
					c1,0.1,2.1,0.2,3.1-0.1c17.5,0.9,35.1,0.2,52.6,0.4c1.3,0,2.5,0,3.8-0.1c2.4,0.3,3.6,1.4,3.5,3.2c-0.1,1.8-1.4,2.7-3.9,2.7
					c-48.8,0-97.5,0-146.3,0c-0.9,0-2-0.3-2.8,0.4c-1.7,0.3-3.4,0.3-5.1,0c-1.4-0.3-2.6-0.8-2.5-2.6c0.1-0.5,0.4-0.8,0.9-0.5
					c1.8,0.9,1.9,0,1.5-1.4C276.1,399.3,275.8,398.8,276.3,398.2z"/>
				<path class="st6" d="M79.8,398.1c12.3-0.1,24.7,0.5,37-0.3c1.3-0.1,2.5,0,3.8,0c3.5,0.5,7-0.1,10.5-0.1c3.2-0.1,6.4-0.2,9.6-0.2
					c28.2,0,56.5,0,84.7-0.1c1.9,0,3.8,0.6,5.7,0.3c0.6,0.2,1.1,0.3,1.7,0.5c0.4,0.5,0.2,1,0.1,1.5c-0.1,0.6-0.5,1.4,0.3,1.7
					c0.8,0.4,1-0.6,1.3-1.1c0.4-0.6,0.5-1.6,1.7-1.3c1.1,0.8,1.5,1.9,1,3.1c-0.5,1.5-1.6,2.3-3.1,2.4c-2.2,0.2-4.4-0.1-6.6,0.4
					c-0.5-1.4-1.7-0.9-2.7-0.9c-36.8,0-73.7,0-110.5,0c-11.3,0-22.5,0-33.8,0c-1.2,0-2.4,0.1-3.3-1c-0.7-0.9-0.9-1.8-0.5-2.9
					C77.2,398.6,78.4,398.2,79.8,398.1z"/>
				<path class="st7" d="M262,384.2c0.3,0.1,0.6,0.1,0.9,0.2c6.3,2.8,10.3,7.9,13.4,13.9c0.1,0.5,0.2,1,0.4,1.5
					c0.4,0.9,0.6,1.9-0.4,2.5c-1.2,0.8-1.6-0.4-2.2-1.1c-2.4-7-6.4-12.6-13.8-14.6c-10.3-2.7-20.5,1.9-24.7,12.4
					c-0.3,0.7-0.6,1.5-0.9,2.2c-0.3,0.8-0.8,1.5-1.8,1.1c-0.9-0.4-1-1.2-0.8-2c0.2-0.7,0.5-1.4,0.7-2.1c2.5-5.5,6-10.1,11.6-12.8
					c3.4-1.7,7.1-2.2,10.8-2.4c0.5,0.6,1.2,0.3,1.9,0.3c0.9,0.1,1.8,0.1,2.8,0.2C260.6,383.7,261.3,384,262,384.2z"/>
				<path class="st8" d="M317.5,359.6c3.1-0.7,6.3-0.7,9.4,0C323.8,359.6,320.7,359.6,317.5,359.6z"/>
				<path class="st7" d="M203.4,387.4c0-2.2-0.1-4.5-0.1-6.7c-0.4-2.2,0.2-4.5-0.2-6.7c0-0.3-0.1-0.7-0.1-1
					c-0.4-0.4-0.4-0.9-0.1-1.4c0-2.8,0-5.6,0-8.3c0.2-0.2,0.4-0.3,0.7-0.3c6.9-0.1,13.8,0.8,20.5,2.6c0.9,0.2,1.8,0.4,2.5,0.9
					c0.2,0.2,0.3,0.4,0.2,0.7c-0.2,8.7-0.3,17.5-0.5,26.7c-1.6-1.2-2.8-2.1-4.1-3c-1-0.3-1.8-0.8-2.6-1.4c-0.2-0.2-0.5-0.4-0.7-0.5
					c-5-3.9-3.1-3.7-8.5-0.5c-0.5,0.4-1.1,0.5-1.7,0.7c-1.8,0.4-3.1,1.8-5,2.6c-0.6-1-0.1-2-0.4-3C203,388.3,203,387.9,203.4,387.4z
					"/>
				<g>
					<path class="st9" d="M277.2,403.9c-1.6-0.2-3.4-0.3-3.1-2.8c0.5-0.6,0.2-1.3,0-1.9c-1.6-3.6-3.6-7-6.7-9.6
						c-4-3.3-8.5-4.6-13.7-4.3c-7.9,0.4-13.6,4.2-17.5,10.9c-0.5,0.8-1,1.7-0.6,2.7c1,0.8,1.6,1.8,1,3.1c-0.6,1.3-1.6,2-3.2,1.9
						c-1.5-0.1-2.9,0-4.4,0c-0.8,0-1.5,0-1.6,1c0.5,2.2,2.1,3,4.1,3c15.2,0,30.4,0,45.6,0c2.3,0,3.8-1.1,4.2-3.5
						C280.1,403.5,278.6,404.1,277.2,403.9z"/>
					<path class="st9" d="M352.3,395.7c-15.3-1.5-30.7-3.1-46.1-1.9c-8.5,0.6-17,1.7-25.3,4c0.6,0.6,1.4,0.4,2.1,0.4
						c29.6,0,59.2,0,88.8,0c0.9,0,1.8,0.3,2.6-0.4C367,397.1,359.7,396.4,352.3,395.7z"/>
					<path class="st9" d="M231.1,397.7c-1.6-0.5-3.1-1-4.7-1.4c-11.8-2.7-23.8-3.3-35.8-3c-23.4,0.6-46.7,3.1-70,4.4
						c0.7,0.7,1.6,0.4,2.3,0.4c35.4,0,70.7,0,106.1,0C229.7,398.1,230.5,398.4,231.1,397.7z"/>
				</g>
				<path class="st10" d="M203.4,363.2c0.9-2.1,2.8-1.8,4.5-1.9c6.5,0.4,13,1.3,19.2,3.3c0.6,0.9,0.6,1.6-0.4,2.2
					c-5.3-1.3-10.6-2.3-16-2.9c-1.9-0.2-3.8-0.2-5.8-0.1C204.2,363.7,203.7,363.9,203.4,363.2z"/>
				<g>
					<path class="st11" d="M379.9,372.7c-8.1-1.7-16.1-3.2-24.2-4.7c-9.3-1.8-18.6-2.9-28-3.3c-13.2-0.7-26,1.6-38.5,6.2
						c-3.8,1.4-7.6,3-11,5.2c3.7-1.2,7.2-2.7,10.9-3.9c9.7-3.3,19.6-5.5,29.8-5.8c10.8-0.4,21.3,0.9,31.9,2.6
						c14.3,2.3,28.5,5.1,42.7,7.7c2.7,0.5,5.4,1.4,8.2,1.1C394.4,376,387.2,374.2,379.9,372.7z"/>
					<path class="st11" d="M278.1,384.2c25-10.5,50.8-10.6,77.1-6.5C328.8,372.3,302.9,371.6,278.1,384.2z"/>
					<path class="st11" d="M286.7,389.2c20-6.3,40.4-5.5,60.8-2.8C327.1,382.6,306.7,381.1,286.7,389.2z"/>
					<path class="st11" d="M205.7,361c-7.4,0-14.9,0-22.3,0.8c-7.2,0.7-14.3,1.8-21.3,3.1c-8.5,1.5-16.9,3.8-25.4,5.7
						c-4,0.9-8,2-12,3.1c0.5,0.3,1,0.4,1.4,0.3c14.1-3.4,28.3-6.4,42.7-8.5c11.4-1.7,22.8-2.3,34.2-2c0.1,0,0.3-0.1,0.4-0.1
						c1.4-1,3.1-1,4.5-1.9C207.2,360.8,206.4,361,205.7,361z"/>
					<path class="st11" d="M201.4,379.1c-8.6-0.6-17.1-0.2-25.6,0.4c-7.2,0.5-14.3,1.4-21.4,2.5c-4.7,0.8-9.4,1.3-14,2.6
						c20.9-2.7,41.8-5.6,62.9-3.8C203.3,378.5,202.6,379.2,201.4,379.1z"/>
					<path class="st11" d="M148.9,390.8c18.1-2,36.2-2.9,54.4-2c0-0.5,0-0.9,0-1.4C185.1,387,166.9,387.4,148.9,390.8z"/>
					<path class="st11" d="M203,373c0-0.5,0-0.9-0.1-1.4c-0.8-0.4-1.7-0.3-2.6-0.3c-8.9,0-17.8,0.8-26.6,1.8
						c-5.2,0.6-10.3,1.5-15.4,2.2C173.1,373.9,188,371.9,203,373z"/>
					<path class="st11" d="M227.1,364.6c0.1,0.8,0,1.5-0.4,2.2c0,0.2,0.1,0.3,0.1,0.5c8,1.9,14.7,6.3,20.8,11.7
						C242.5,371.7,235.3,367.4,227.1,364.6z"/>
					<path class="st11" d="M218.8,388.9c-2.9-0.7-5.7-1.5-8.7-0.7c-0.6,0-1.1,0.4-1.4,0.9c4.5,0.6,9,1.2,13.5,1.8
						c-0.7-0.6-1.4-1.2-2.1-1.7C219.5,389.4,219.2,389,218.8,388.9z"/>
				</g>
				<path class="st12" d="M367.5,285.7c-4.6,1.4-11.6,3.5-20,6.5c-28.3,10.1-48.5,17.5-65.4,35c-4.1,4.2-9.9,11-15.4,20.8
					c-0.6-18.1-3-32.8-5.1-43.3c-1.9-9-3.3-15.8-6.6-24.8c-4.7-12.6-11.3-24.3-19.2-35.2c-4.2-5.8-8.6-11.5-13-17.2
					c-1-1.3-2-1.9-3.7-0.8c-7.4,4.7-14.8,9.3-22.2,14c-5.7,3.6-11.4,7.1-17.2,10.6c3.9,3.6,7.8,7.2,11.6,10.9
					c5.4,5.3,10.8,10.7,16,16.3c3.9,4.3,7.9,8.5,11.7,12.9c8.2,9.4,16.1,19.2,23.3,29.5c5.2,7.5,10.3,15,14.1,23.3
					c2.9,6.4,4.8,13.1,5.6,20.2c0.1,0.5-0.2,1.5,0.6,1.6c0,0,0,0,0,0c0,4.7,0,9.3,0,14.4c4.2-5.7,8.1-11.1,12-16.5
					c1,0.1,1.3-0.9,1.8-1.6c7-9.2,14.5-18,22.3-26.5c9.2-10,19.2-19,30.6-26.6l0,0c1.7-1.3,3.6-2.1,5.3-3.3
					c11.7-7.6,24-14,36.7-19.7c0.2-0.1,0.8-0.4,1.6-0.9c3-1.5,5.5-2.6,7.4-3.4C377.4,282.6,373,283.9,367.5,285.7z"/>
				<path class="st12" d="M251.5,360c-0.6-1.3-1.3-2.5-2.2-3.6c-0.3-0.3-0.7-0.6-1-0.9c-0.1-0.2-0.2-0.5-0.3-0.7
					c-5.9-9.7-12.9-18.5-20.6-26.8c-5.2-5.6-10.6-10.9-16.5-15.8c-8.3-6.9-17-13.4-25.8-19.5c-2.4-1.6-4.8-3.3-7.2-4.9
					c0,0.2,0,0.3-0.1,0.5c-1.7-1.8-3.6-3.3-6.2-3.8c-0.2,0.3-0.4,0.6-0.7,0.8c-3.4,2.3-6.7,4.8-10,7.2c-7.4,5.5-14.2,11.8-20.9,18
					c-6.8,6.3-13.1,13.1-19.4,19.8c-0.4,0.4-0.9,0.8-0.8,1.5c0.5,0.7,1.2,0.9,2,0.9c2.2-0.1,4.3,0.4,6.4,0.6
					c8.6,0.6,17.2,1.4,25.8,2.2c9.6,0.9,19.2,1.9,28.8,3.1c12.9,1.6,25.6,3.8,38.1,7.3c8.7,2.4,17.1,5.4,24.2,11
					c1.7,1.3,3.2,2.9,4.7,4.4c0.5,0.5,1.2,1.3,1.9,0.9C252.5,361.7,251.8,360.7,251.5,360z"/>
				<path class="st12" d="M257.9,381.5c-0.2-1.7-0.4-3.3-1.2-4.8c-0.3-0.4-0.5-1-0.8-1.5c-1.6-7.5-6-13.3-11.8-18.2
					c-5.1-4.2-11.2-6.7-17.4-8.8c-12.8-4.4-25.9-6.8-39.3-8.7c-7-1-14-1.8-21-2.4c-7.2-0.6-14.5-1.4-21.7-2.1v0
					c-2.8-0.1-5.6-0.8-8.5-0.5c0,0,0,0,0,0c0-0.1-0.1-0.2-0.1-0.3c-1.9-0.7-3.9-0.7-5.8-0.9c-1-0.1-2-0.5-2.9,0.3
					c0,0.5-0.2,0.8-0.5,1.2c-6.2,6.3-12,13-17.9,19.7c-5.4,6.1-10.9,12.1-16,18.4c8.5-0.9,16.9-2.5,25.2-4.2
					c14.6-2.9,29-6.1,43.6-9.1c10-2,20-3.5,30.2-4.1c8.7-0.5,17.4-0.1,26,1.3c8.6,1.4,16.8,4,23.9,9.3c5.9,4.4,10.8,9.8,13.5,16.8
					c0.4,1,1.2,0.8,1.9,0.6C257.9,383.1,258,382.3,257.9,381.5z"/>
				<path class="st12" d="M261.7,372.2c-0.2-0.7-0.3-1.3-0.5-1.9c0.1-8.5-1.7-16.7-5-24.6c-5-11.7-12.5-21.7-20-31.8
					c-6.1-8.2-12.5-16.3-19.3-24c-5.9-6.8-11.9-13.5-18.4-19.8v0c-2.3-2.4-4.5-4.8-7-6.9c0-0.1,0.1-0.1,0.1-0.2
					c-1.7-2.8-4.2-4.6-6.8-6.4c0,0-0.1,0.1-0.2,0.1c-0.3,0.5-0.7,0.9-1.2,1.2c-8.9,4.8-17,10.7-25.2,16.6c0.6,1,1.7,1.5,2.6,2.1
					c15.4,9.8,30.7,19.8,45.2,30.9c9.5,7.3,18.1,15.5,26,24.5c7.8,9,14.9,18.6,20.6,29.2c3.5,6.4,6.5,13.1,6.8,20.6
					c0,0.8-0.1,1.8,1.2,1.8c0.8-0.5,0.8-1.3,0.9-2.1C262,378.3,261.9,375.3,261.7,372.2z"/>
				<path class="st13" d="M416.7,370.8c-6.9-10.1-13.8-20.1-20.4-30.4c-2-3.1-4.5-4.7-8-5.5c-8.8-2.2-17.7-4-26.7-5.4
					c-5.2-0.8-10.4-1.8-15.6-2c-7.4-0.3-14.8-0.5-22.2,0.7c-7.9,1.3-15.5,3.5-22.5,7.2c-0.6,0.3-3.8,2.6-3.9,2.7
					c-0.5,0.5-1.1,1-1.6,1.5c-4.1,4.8-8.2,9.6-12.2,14.5c-4.9,6.1-9.7,12.3-13.9,18.8c0,0,0,0,0,0c-2.9,3.5-5.3,7.2-7.5,11.2
					c0.3,0.3,0.6,0.4,0.9,0.2c0.6-0.9,1.2-1.9,1.9-2.7c5.5-6,12-10.7,19.4-14.2c10.6-4.9,21.7-7.1,33.3-7.9c3.1-0.3,6.3-0.3,9.4,0
					c4.7,0,9.3,0.5,14,0.8c9.4,0.6,18.6,2.8,27.8,4.3c4.4,0.7,8.8,2.2,13.3,2.5c0,0,0,0,0,0c0,0,0,0,0,0c1.9,0.8,3.9,0.8,5.8,1.2
					c9.9,1.9,19.9,3.5,30,4.6C417.7,372.1,417.2,371.5,416.7,370.8z"/>
				<path class="st14" d="M220,389.2c-2.6,0.5-5-0.7-7.5-0.7c-0.8,0-1.6-0.2-2.4-0.3c1.1-1.2,2.7-1.7,4-2.7c0.8-0.6,1.4,0,1.9,0.5
					C217.4,387.1,218.7,388.1,220,389.2z"/>
				<path class="st15" d="M158.2,274.6c36.1,19.9,105.9,73.3,100.1,109.3c-2.5-2.9-1.9-11.3-5.8-16
					c-20.3-34.5-110.1-29.1-133.1-35.1c44.6,1.4,115.5,7.6,132.2,29.3C227.4,317.1,188.6,299,158.2,274.6z"/>
				<path class="st5" d="M274.6,363.7c15.6-19.9,32.6-40.9,54.6-54.6c-43.1,29.7-73.3,92.5-68.3,71c4.6-49.4-55.6-100.6-77.7-124.6
					c-1.5-0.8-5.9-6.3-1.3-2.9c40,38.7,85,85.6,81.1,124.3C261.5,384.3,270.5,365.4,274.6,363.7z"/>
			</g>
		</g>
	</g>
</g>
</svg>
