<svg xmlns="http://www.w3.org/2000/svg" viewBox="0 0 310.1 208.91"><defs><style>.cls-1{isolation:isolate;}.cls-2{fill:#2a2353;}.cls-3{fill:#59559d;}.cls-10,.cls-13,.cls-4,.cls-6{mix-blend-mode:multiply;}.cls-5{fill:#332d60;}.cls-6,.cls-7{fill:#47427e;}.cls-14,.cls-7{mix-blend-mode:screen;}.cls-13,.cls-14,.cls-8{fill:#f6e1cc;}.cls-10,.cls-9{fill:#de9e6c;}.cls-9{opacity:0.9;}.cls-10{opacity:0.5;}.cls-11{fill:#7d5da7;}.cls-12{fill:#f6e7cf;}.cls-14{opacity:0.4;}</style></defs><g class="cls-1"><g id="Layer_2" data-name="Layer 2"><g id="Layer_1-2" data-name="Layer 1"><path class="cls-2" d="M310.1,29.59l-8-2.51-146.12,51v82.1l-.89,0-.89,0V78.08L8,27.08,0,29.59,3.65,205s-.73,4.3,4,3.94,54.41-19.14,132.55-8.07a20,20,0,0,0,29.64,0c78.14-11.07,127.82,7.71,132.55,8.07s4-3.94,4-3.94Z"/><path class="cls-3" d="M310.1,27.1l-8-2.51-146.12,51v82.11c-.29,0-.59,0-.89,0s-.6,0-.89,0V75.58L8,24.59,0,27.1,3.65,202.45s-.73,4.31,4,4,54.41-19.14,132.55-8.08a20,20,0,0,0,29.64,0C248,187.26,297.69,206,302.42,206.4s4-4,4-4Z"/><g class="cls-4"><path class="cls-3" d="M145.89,199.38a49.08,49.08,0,0,0-6-2.73l-.06.35-.18,1.24.58.08a20.44,20.44,0,0,0,13.82,6.53A53.32,53.32,0,0,0,145.89,199.38Z"/><path class="cls-3" d="M310.1,27.1l-8-2.51-146.12,51v82.11c-.29,0-.59,0-.89,0s-.6,0-.89,0V75.58L8,24.59l-.91.28c-.55,15.62-.41,31.26,0,46.88.71,28.78,2.18,57.55,1.46,86.34-.36,14.36-1,28.73-.61,43.1,0,.28,0,2.9.33,2.78a17,17,0,0,0,2.25-1.05c1.24-.69,2.4-1.49,3.61-2.22a35.54,35.54,0,0,1,8.14-3.56c6.22-1.87,12.74-2.43,19.14-3.41a286.93,286.93,0,0,1,42.21-3.5c7.09,0,14.14.36,21.22.63A164.17,164.17,0,0,1,124,192.53a79.1,79.1,0,0,1,15.72,3.83,17.12,17.12,0,0,1,1.71-5.34c.05-.11.21,0,.16.09a17.27,17.27,0,0,0-1.7,5.31c.8.3,1.58.62,2.35,1a55.12,55.12,0,0,1,12.09,7.47h.33a108.49,108.49,0,0,1,13.24-6.54c.83-.35,1.66-.69,2.5-1a36.35,36.35,0,0,0-.34-5.11c0-.12.16-.17.17,0a34.61,34.61,0,0,1,.35,5.08c1.34-.53,2.68-1,4-1.53a49.66,49.66,0,0,1,7.54-1.84A136.66,136.66,0,0,1,197,192.09c20.66-1.55,41.49-2.32,62.12.23a166.22,166.22,0,0,1,29.77,6.32A138.85,138.85,0,0,1,303.17,204c.9.4,1.78.81,2.65,1.24a4,4,0,0,0,.62-2.8Z"/><path class="cls-3" d="M170.44,197.51q-2.44,1-4.84,2a115.24,115.24,0,0,0-10.45,5.33,20.37,20.37,0,0,0,14.72-6.55l.56-.08C170.44,198,170.44,197.75,170.44,197.51Z"/></g><path class="cls-5" d="M170.05,70.66l-14.11,4.92v82.11c-.29,0-.59,0-.89,0s-.6,0-.89,0V75.58L140.3,70.75V198.4a20,20,0,0,0,29.57-.08l.18,0Z"/><path class="cls-6" d="M162.2,73.4V203.53a21.26,21.26,0,0,0,7.67-5.21l.18,0V70.66Z"/><path class="cls-6" d="M147.88,73.39l-7.58-2.64V198.4a21.38,21.38,0,0,0,7.58,5.12Z"/><path class="cls-7" d="M163,201.12a23,23,0,0,1-13.1.74,25.93,25.93,0,0,1-9.57-4.37v.91a20,20,0,0,0,29.57-.08l.18,0v-1A24.27,24.27,0,0,1,163,201.12Z"/><path class="cls-8" d="M303.6,178.82a5.09,5.09,0,0,1,.77-1.39l2.68-136.21c-43.54-20.83-116.79-18.06-152,7.25C120.29,22.36,47.44,20.15,3.41,41.22L6.05,177.61a5.81,5.81,0,0,1,.67.94,8.31,8.31,0,0,1,.87,1.77,25.49,25.49,0,0,1,.75,4,64,64,0,0,1,.46,8.3,36.78,36.78,0,0,1-2,11.85c3-2.39,33.43-25.36,92.66-18,18.91,2.35,31.55,6,40.7,9.56.38-1.87,1.14-3.64,1.62-5.48a21.06,21.06,0,0,1,1.15-3.47,12.68,12.68,0,0,1,2-3,16.66,16.66,0,0,1,5.8-4.46,11.31,11.31,0,0,1,6.51-.54,13.72,13.72,0,0,1,6.27,2.57,17.76,17.76,0,0,1,2.53,2.81,21.43,21.43,0,0,1,2.06,2.93,19.33,19.33,0,0,1,2,6.48c.11.69.19,1.39.27,2.09,9.14-3.54,21.77-7.19,40.61-9.53,60.23-7.48,90.66,16.25,92.75,17.95a49,49,0,0,1-2-14.44,33.45,33.45,0,0,1,.75-7.92A21.67,21.67,0,0,1,303.6,178.82Z"/><path class="cls-9" d="M303.6,178.82a5.09,5.09,0,0,1,.77-1.39l2.68-136.21c-43.54-20.83-116.79-18.06-152,7.25C120.29,22.36,47.44,20.15,3.41,41.22L6.05,177.61a5.81,5.81,0,0,1,.67.94,8.31,8.31,0,0,1,.87,1.77,25.49,25.49,0,0,1,.75,4,64,64,0,0,1,.46,8.3,36.78,36.78,0,0,1-2,11.85c3-2.39,33.43-25.36,92.66-18,18.91,2.35,31.55,6,40.7,9.56.38-1.87,1.14-3.64,1.62-5.48a21.06,21.06,0,0,1,1.15-3.47,12.68,12.68,0,0,1,2-3,16.66,16.66,0,0,1,5.8-4.46,11.31,11.31,0,0,1,6.51-.54,13.72,13.72,0,0,1,6.27,2.57,17.76,17.76,0,0,1,2.53,2.81,21.43,21.43,0,0,1,2.06,2.93,19.33,19.33,0,0,1,2,6.48c.11.69.19,1.39.27,2.09,9.14-3.54,21.77-7.19,40.61-9.53,60.23-7.48,90.66,16.25,92.75,17.95a49,49,0,0,1-2-14.44,33.45,33.45,0,0,1,.75-7.92A21.67,21.67,0,0,1,303.6,178.82Z"/><path class="cls-10" d="M302.51,182a21.67,21.67,0,0,1,1.09-3.21,8.67,8.67,0,0,1,.45-.95c-1.82,1-3.58,2.16-5.64,2.54.94,1,2.32,1.42,3.21,2.46a.09.09,0,0,1-.07.15c-2.82,0-5.64-1-8.45-.41,1.3.89,2.76,1.54,4.06,2.43a5.68,5.68,0,0,1,2.63,3.23.09.09,0,0,1-.11.11c-1.79-.53-3.58-1.07-5.38-1.59-15.62-4.55-31.69-8.56-48.07-8.21l.09,0c12.42,3.18,26.71,2.38,37.36,10.53.08.07,0,.2-.07.17q-2.75-.68-5.45-1.5c-3.9-1.17-7.76-2.48-11.7-3.55a93.63,93.63,0,0,0-11.87-2.34,160.3,160.3,0,0,0-24.49-1.29,191,191,0,0,0-24,1.76A163,163,0,0,0,183,187.45a.09.09,0,0,1-.09-.15c3-2.92,6.95-4.26,10.72-5.82,4-1.63,7.93-3.43,12.15-4.3-7,.5-13.66,3.14-20.57,4.36-.09,0-.17-.12-.07-.17h0c1.24-.53,2.49-1,3.75-1.54a138,138,0,0,1,22.72-7A118.14,118.14,0,0,1,235,170.43a173.07,173.07,0,0,1,24.4,1.45c2,.27,3.91.6,5.87.85,1.69.22,3.38.44,5.07.71s3.21.58,4.78,1c-11.14-4.15-23.13-5.93-34.92-6.93a157.24,157.24,0,0,0-23.87-.42,203.78,203.78,0,0,0-24.71,3.37.09.09,0,0,1-.07-.17,27.94,27.94,0,0,1,9-3.92c3.41-.94,6.9-1.73,10.38-2.35a111.47,111.47,0,0,1,11.66-1.44c3.37-.24,6.93.36,10.23-.52a34,34,0,0,0-8.77-.81c-7.14.18-14.12,1.74-21.14,2.9a111.8,111.8,0,0,0-23.28,6.68c-.1,0-.16-.12-.07-.17q1.91-1.16,3.87-2.18c12.23-6.41,26-9.65,39.7-10.63a124.42,124.42,0,0,1,20.79.22,181.22,181.22,0,0,1,20.85,3.43c13.75,3,27.42,7.26,39.63,14.36l.8-40.53H5.23l.82,42.28,0,.06c1.14-.79,2.29-1.54,3.47-2.25,12.51-7.5,27-10.94,41.34-12.93a181.16,181.16,0,0,1,42-1.19c13.72,1.32,27.65,4.5,39.62,11.57a.09.09,0,0,1-.07.17,106.47,106.47,0,0,0-19.94-4.39c-4.92-.53-9.87-.71-14.8-1.11,6.27,1.08,12.41,2.82,18.55,4.49,7,1.92,14.32,3.83,20.51,7.87.1.06,0,.22-.09.16a30.27,30.27,0,0,0-9.52-3.35c-3.36-.69-6.76-1.28-10.13-1.94-8.69-1.71-17.42-3.39-26.24-4.24a181.89,181.89,0,0,0-23-.69c-14.76.47-29.87,2.82-43.16,9.56,2.72-.52,5.4-1.23,8.06-2,4-1.15,8-2.4,12.06-3.21a97.87,97.87,0,0,1,12.42-1.48c8.4-.55,16.87-.53,25.28-.39,15.61.26,31.49,2.53,45.81,9a.09.09,0,0,1-.07.17,197.83,197.83,0,0,0-40.63-7c-15-.93-30.81-1-45.07,4.44a139.55,139.55,0,0,1,26.94-1.81c4.14.08,8.28.27,12.43.41,3.76.12,7.53.28,11.28.59,7.36.61,14.8,1.77,21.63,4.69.08,0,0,.19,0,.17l-1.29-.16c-8.48-1.11-17-2.22-25.52-2.7a142.9,142.9,0,0,0-25.33.74c-16.24,2-31.92,6.92-47,13-.1,0-.15-.11-.07-.17A80.55,80.55,0,0,1,29.34,186c-5.3,1.1-10.09,3.91-15.44,4.83-.08,0-.17-.09-.09-.15,2.63-2.08,5.85-3.41,8.13-5.91-3.18.45-6.29,1.78-9.55,1.45-.05,0-.11-.06-.08-.12.58-1.65,1.72-3,2.33-4.64-1.53.46-3.09.82-4.6,1.32-.57.19-1.2.39-1.82.64,0,.31.09.61.12.92a64,64,0,0,1,.46,8.3,36.78,36.78,0,0,1-2,11.85c3-2.39,33.43-25.36,92.66-18,18.91,2.35,31.55,6,40.7,9.56.38-1.87,1.14-3.64,1.62-5.48a21.06,21.06,0,0,1,1.15-3.47,12.68,12.68,0,0,1,2-3,16.66,16.66,0,0,1,5.8-4.46,11.31,11.31,0,0,1,6.51-.54,13.72,13.72,0,0,1,6.27,2.57,17.76,17.76,0,0,1,2.53,2.81,21.43,21.43,0,0,1,2.06,2.93,19.33,19.33,0,0,1,2,6.48c.11.69.19,1.39.27,2.09,9.14-3.54,21.77-7.19,40.61-9.53,60.23-7.48,90.66,16.25,92.75,17.95a49,49,0,0,1-2-14.44A33.45,33.45,0,0,1,302.51,182Z"/><path class="cls-11" d="M140.56,196.94a1.18,1.18,0,0,0,1-.05c1.07-9.48,6.9-16.73,13.94-16.73s12.8,7.18,13.91,16.59c.67.33,1.67-.38,2.23-1.16-1.65-10.41-8.25-18.2-16.14-18.2s-14.61,7.92-16.19,18.46A2.58,2.58,0,0,0,140.56,196.94Z"/><g class="cls-4"><path class="cls-8" d="M26.44,190S84.64,167.6,139,192.36C139,192.36,98.77,170.83,26.44,190Z"/><path class="cls-8" d="M17.38,188.66S57.11,170,101.45,177.57C101.45,177.57,57.11,173.69,17.38,188.66Z"/><path class="cls-8" d="M46,173.69s53-12.93,95.16,10.91C141.18,184.6,105,166.49,46,173.69Z"/><path class="cls-8" d="M11.1,177s35.29-22.54,88.32-12.93C99.42,164.09,50.64,158.17,11.1,177Z"/><path class="cls-8" d="M108.1,164.27s25,5.54,39.54,14.78C147.64,179.05,120.3,167.23,108.1,164.27Z"/><path class="cls-8" d="M84.27,165.75s34.92,0,60.42,16.26C144.69,182,122.15,169.81,84.27,165.75Z"/><path class="cls-8" d="M44.17,170.92S19.6,176.1,10.92,182.56C10.92,182.56,29.76,175.73,44.17,170.92Z"/></g><g class="cls-4"><path class="cls-8" d="M285.38,190s-58.2-22.35-112.59,2.41C172.79,192.36,213.05,170.83,285.38,190Z"/><path class="cls-8" d="M294.43,188.66S254.71,170,210.36,177.57C210.36,177.57,254.71,173.69,294.43,188.66Z"/><path class="cls-8" d="M265.79,173.69s-53-12.93-95.15,10.91C170.64,184.6,206.85,166.49,265.79,173.69Z"/><path class="cls-8" d="M300.71,177s-35.29-22.54-88.31-12.93C212.4,164.09,261.17,158.17,300.71,177Z"/><path class="cls-8" d="M203.71,164.27s-24.94,5.54-39.54,14.78C164.17,179.05,191.52,167.23,203.71,164.27Z"/><path class="cls-8" d="M227.55,165.75s-34.92,0-60.42,16.26C167.13,182,189.67,169.81,227.55,165.75Z"/><path class="cls-8" d="M267.64,170.92s24.57,5.18,33.26,11.64C300.9,182.56,282.05,175.73,267.64,170.92Z"/></g><path class="cls-12" d="M3.41,14.24C47.52-6.86,120.55-4.6,155.22,21.63v154.2c-9.57-4.6-23.61-12.37-55.74-16.36C37,151.71,6,177.57,6,177.57Z"/><path class="cls-13" d="M3.41,14.24,6,177.57s31-25.86,93.49-18.1c32.13,4,46.17,11.76,55.74,16.36V21.63C120.55-4.6,47.52-6.86,3.41,14.24ZM143.9,160.66a94,94,0,0,0-17.56-5.7c-19.15-4.25-39.15-3.61-58.6-2.22a176.33,176.33,0,0,0-30.93,4.55,68.74,68.74,0,0,0-6.94,2c-2.24.84-4.41,1.85-6.56,2.89-3.86,1.88-7.75,3.91-12,4.79-.08,0-.16-.09-.09-.16A124.37,124.37,0,0,1,28,154.24a118.21,118.21,0,0,0-15.18,6,.1.1,0,0,1-.13-.13c2.33-4.52.3-24.9,0-29.87l0-.55c-.24-5.38-.63-10.75-.89-16.13s-.5-10.87-.7-16.31c-.41-10.86-3.07-57.93-2.92-63,.11-3.63.22-7.89,3.12-10.5,2.54-2.28,5.94-3.39,8.88-5.06-3,.07-9,.24-8.93.18,1.43-1.06,15.7-10.17,22-11.71,3.53-.87,7.07-1.65,10.6-2.5C48.27,3.67,83.1,2.5,88.26,3.57S98.5,6.05,103.67,7c3.92.68,7.84,1.4,11.7,2.38a62.53,62.53,0,0,1,11.53,3.95c3.42,1.62,7,3.71,9.49,6.61s3.28,6.76,3.46,10.53c.09,2,.06,4,.06,6v.39c0,2.42,0,82.79-.31,88.2-.14,2.57-.21,5.15-.44,7.71a21,21,0,0,1-.71,4.32,5.13,5.13,0,0,1-3.28,3.52c-2.47.91-5.08,1.39-7.56,2.28,4.88,1.49,10.43,2.91,13.46,7.35a.09.09,0,0,1-.1.14,30.55,30.55,0,0,0-10.07-1.06l-1.26.1c-.33,0-1,.31-1.34.15.55.29,1.09.57,1.64.84l3.22,1.58c4.12,2,8.58,4.41,10.87,8.6C144.08,160.61,144,160.69,143.9,160.66Z"/><path class="cls-13" d="M139.45,12.41c.71.5,1.41,1,2.09,1.56A19.12,19.12,0,0,1,148,22.62a39.12,39.12,0,0,1,1.82,11.32c.2,4.57.31,9.15.38,13.72.32,21.28-1,103.16-1.1,107.75-.08,3.52-.37,9.06-4.1,10.82-2.07,1-4.41.46-6.45-.3-3.78-1.4-16.48-4.57-19-4.72q-4-.24-8-.42l-3.77-.16c26.37,4.2,38.78,11,47.49,15.2V21.63A83.24,83.24,0,0,0,139.45,12.41Z"/><path class="cls-14" d="M96.93,10.6c-2.7-.53-5.37-1.21-8.07-1.73-2.9-.55-5.81-1-8.74-1.43a93.43,93.43,0,0,0-17.69-.76l-1.09.08c-.51.06-1,.1-1.53.14-2.12.22-4.22.53-6.33.89-2.88.48-5.74,1-8.58,1.74-2.31.56-4.58,1.23-6.84,1.93l-.33.17a23.47,23.47,0,0,1-4,1.73,1.09,1.09,0,0,0-.53.38c-.84.31-1.66.64-2.49,1L27.58,16c-1.2.77-2.35,1.62-3.54,2.42A17.65,17.65,0,0,1,21.8,19.8c0,.11.1.19.29.17a5.25,5.25,0,0,0,1.55-.47A11.36,11.36,0,0,1,25.72,19a29.75,29.75,0,0,1,5.47-.91c.62,0,1.28-.23,1.9-.29a22.58,22.58,0,0,1,2.33-.08c.25,0,.5,0,.76,0a41.11,41.11,0,0,0-4.48,1.2,42.81,42.81,0,0,0-7.28,3.18c-1.84,1-3.69,2-4.82,3.94s-.84,4.56-1,6.76c0,.26,0,.52-.05.78a39.7,39.7,0,0,0,.28,4.23c.32,2.55.8,5.06,1.2,7.59.36,2.3.57,4.6.73,6.92.6,8.65,1.46,17.28,2,25.92s.93,17.58,1.17,26.37.54,17.67.68,26.49a62.75,62.75,0,0,1-.75,12.7c-.4,2-1,4.06-1.42,6.1a30.14,30.14,0,0,0-.62,3.39l-.09.82a1.55,1.55,0,0,0,1.6.21,8.66,8.66,0,0,1,1.47-.47,11.47,11.47,0,0,0,1.92-.39,42.06,42.06,0,0,1,4.45-.85c.91-.15,1.83-.33,2.75-.47a17.79,17.79,0,0,0-5.06,3.38c-.08.08-.58.81-.36,1A19.54,19.54,0,0,1,27,158.16c-.15.14-.7.89-.24,1h.09c.33-.21.67-.41,1-.6a42.66,42.66,0,0,1,12.93-4.08c.85-.16,1.7-.3,2.55-.44,1.19-.35,2.37-.67,3.58-.93a54.67,54.67,0,0,1,6-.77c1.93-.2,3.86-.4,5.79-.62,1.22-.13,2.46-.26,3.7-.34l1.61-.16c1.87-.18,3.74-.32,5.6-.5.25-.29.4-.63.15-.78-1.43-.88-3.29-.79-4.9-.79-1.11,0-2.26-.26-3.37-.31s-2.45-.06-3.68-.06c-2.32,0-4.61-.22-6.93-.33-2.06-.11-4.12,0-6.17-.28.43-.22.88-.4,1.28-.6a5.41,5.41,0,0,0,2.06-1.8c1-1.4.21-2.55-1.13-3.19a13.87,13.87,0,0,0-4-1.15c-1.64-.21-3.52-.34-4.82-1.5a4.77,4.77,0,0,1-1.05-2.86,13.87,13.87,0,0,1-.08-2,17.38,17.38,0,0,0-.29-2.38c-.42-2.85-.64-5.77-1-8.65a83.63,83.63,0,0,1-.42-9.1c0-3-.15-5.92-.39-8.89-.5-6.21-1.09-12.41-1.42-18.63s-.22-12.21-.22-18.31V60c0-3-.37-6-.37-9.05,0-6.1.24-12.25-.23-18.33-.1-1.25-.4-2.8.11-4,.39-.93,1.54-1.54,2.34-2,2.38-1.43,4.77-2.84,7.23-4.14A35.86,35.86,0,0,1,47,20.36c1.37-.5,2.79-.82,4.17-1.32a22.49,22.49,0,0,1,3.1-.92,3.23,3.23,0,0,0,2.19-1.39c.11-.17.29-.56.09-.74a7.55,7.55,0,0,0-3.06-1.16,12.75,12.75,0,0,0-3.74-.37,23.33,23.33,0,0,0-3.55.19,8.06,8.06,0,0,1-2.19.1h-.1A37,37,0,0,1,54,11.41c2.45-.46,4.85-1.16,7.32-1.57A61.51,61.51,0,0,1,69,9.08C71.5,9,74,9,76.53,9s5.06,0,7.58.16,4.75.56,7.12.81c1.88.2,3.8.49,5.68.84a3.52,3.52,0,0,0,.81.15.6.6,0,0,0,.34-.14Z"/><path class="cls-12" d="M155.24,21.63v154.2c9.56-4.6,23.61-12.37,55.73-16.36,62.45-7.76,93.49,18.1,93.49,18.1l2.59-163.33C262.94-6.86,189.91-4.6,155.24,21.63Z"/><path class="cls-13" d="M155.24,21.63v154.2c9.56-4.6,23.61-12.37,55.73-16.36,62.45-7.76,93.49,18.1,93.49,18.1l2.59-163.33C262.94-6.86,189.91-4.6,155.24,21.63ZM299.7,130.86c-.15,3.79-.4,7.57-.5,11.35a60.22,60.22,0,0,1-.67,8.91c-.45,2.6-1.23,5.39-3.08,7.35-2.17,2.31-5.42,2.83-8.46,2.62-4.15-.29-8.11-1.69-12-3A97.45,97.45,0,0,0,262,155a205.39,205.39,0,0,0-30.58-3.28,179.12,179.12,0,0,0-30.7,1.75c-4.86.69-9.79,1.33-14.59,2.37-2.3.5-4.62,1.12-7,1.58a62.51,62.51,0,0,1-8.17,2.91.1.1,0,0,1-.12-.12c1-4.73,5.21-8.33,8.87-11.17a34.43,34.43,0,0,0-8.46,3,.09.09,0,0,1-.11-.14c2.81-2.81,5.75-5.69,9.51-7.08-4.16.77-8.1,1.91-11.61,4.45-.06,0-.14,0-.14-.08-.34-10.46.07-20.93,0-31.4-.21-20.56-1.29-41.12-.8-61.69.19-7.83-.29-25.62-.28-26.63,0-3.38.06-7.16,2.05-9.95,7.71-10.76,40.42-16.18,44.87-16.7a125.29,125.29,0,0,1,15.12-.85,188.51,188.51,0,0,1,29.51,2.72c7.2,1.18,14.51,2.32,21.47,4.6,5.73,1.87,12.39,4.55,15.75,9.88a.09.09,0,0,1-.08.14c-2.59.24-5.23,0-7.8.51,2.34,1.63,5.22,2.29,7.31,4.32a.09.09,0,0,1-.09.15c-7.2-1.57-14.58-1.14-21.89-.86,4.27.8,8.6,1.24,12.8,2.32,3.19.83,6.5,2,9,4.13a9.14,9.14,0,0,1,2.92,3.69,14.1,14.1,0,0,1,.58,5c-.05,10.07,0,20.15.37,30.21C300.58,89.39,300.53,110.17,299.7,130.86Z"/><path class="cls-13" d="M159.87,173.29c-1.64-1.89-2.18-4.55-2.45-7-.57-5.06-3-124,1.68-139.41a32.44,32.44,0,0,1,4.15-9.44c.45-.65.93-1.28,1.42-1.9a75.73,75.73,0,0,0-9.43,6v154.2l4.82-2.34Z"/><path class="cls-14" d="M271.79,10.77a4.23,4.23,0,0,0-2.27-1.23c-1.07-.32-2.07-.86-3.12-1.23-2.64-.93-5.32-1.84-8-2.52-18.47-4.66-38.25-1.29-56.28,3.68-2.29.63-4.49,1.53-6.7,2.38-2.46,1-4.94,1.81-7.36,2.85a65.59,65.59,0,0,0-6.88,3.53c-1.54.9-3.55,1.76-4.47,3.36-.12.2-.3.59,0,.7,1,.36,2.37-.21,3.28-.49a35.19,35.19,0,0,1,6.11-1.06c2-.26,4.2-.29,6.26-.35,1,0,1.93,0,2.9,0,.25,0,.54,0,.83,0l-.15.05c-.5.19-1,.45-1.45.65-1.24.5-2.45,1-3.65,1.62A23.72,23.72,0,0,0,185,26.1c-1.12,1-1.69,2.59-.39,3.73s3.68,1.52,2.88,3.59a21.28,21.28,0,0,0-1,7.61c0,2.92-.31,5.83-.37,8.76s0,5.84-.08,8.76-.18,5.89-.23,8.83.18,5.77.25,8.65-.11,6,.05,8.92.08,6,.12,9,.19,5.75.34,8.62-.2,5.7-.22,8.56c0,3-.08,6.07,0,9.11.07,5.89-.23,11.77-.23,17.65,0,1.45-.13,2.89-.13,4.34,0,1.29.23,2.56,1.75,2.55a10.16,10.16,0,0,0,2.4-.36c1-.28,2-.8,3.09-1,.65-.13,1.33-.35,2-.51a23.3,23.3,0,0,0-3.79,2.44c-.67.52-1.46.93-2.16,1.43s-1.39,1-2.07,1.59a26.2,26.2,0,0,1-3.85,2.87c-.3.16-1.38,1.59-.51,1.47a2.84,2.84,0,0,0,1.31-.62c.72-.21,1.5-.3,2.18-.55,1.1-.41,2.21-.77,3.34-1.11,8.36-2.48,18-3.42,26.76-3.53,2.07,0,4.11-.28,6.18-.28s4.29-.2,6.45-.26,4.57,0,6.85,0c.43,0,1.61-1.11,1.06-1.5a9.33,9.33,0,0,0-2.31-1.07c-.89-.3-1.73-.65-2.65-.87a46,46,0,0,0-6.69-1.22q-3.57-.31-7.13-.66c-1.08-.11-2.16-.18-3.24-.32a12.7,12.7,0,0,1-1.95-.25l.22-.09,1-.4c1.14-.48,2.3-1.09,3.4-1.66.72-.36,1.6-.45,2.19-1.07.39-.42,1.24-1.54.56-2.11a4.65,4.65,0,0,0-2.25-.7,32,32,0,0,0-3.9-.49,29.72,29.72,0,0,1-3.78-.58,4.21,4.21,0,0,1-2.46-2.23,16.14,16.14,0,0,1-2.38-6.62,46.88,46.88,0,0,1-.14-7.4c.08-2.8-.21-5.56-.23-8.35s.28-5.5.28-8.25,0-5.62,0-8.43.25-5.75.25-8.63V64.92c0-6.11-.13-12.23.34-18.34.23-3,.52-6,.68-9.07.07-1.42.06-2.84.1-4.26s.23-2.87.27-4.32c0-2.07.23-4.28,1.53-6a15.68,15.68,0,0,1,5-3.85c3.95-2.17,8.36-3.43,12.53-5.09.25-.1,1.22-1.39.6-1.39-2.69,0-5.39,0-8.08.17a50.85,50.85,0,0,0-8.49,1.42c-1.38.34-2.77.7-4.16,1-.67.15-1.31.32-2,.52s-1.46.23-2.18.46c-.27.09-.55.17-.83.24a20.11,20.11,0,0,1,2-1.15c1.57-.83,3.18-1.6,4.8-2.33a54.44,54.44,0,0,1,8-2.67,49.51,49.51,0,0,1,8.72-1.48c2.9-.27,5.77-.83,8.69-1.05a46.72,46.72,0,0,1,9.52.57c1.58.2,3.15.42,4.73.65s3.33.3,5,.46c3.21.32,6.4.79,9.61,1.1l4.61.43c.72.07,1.44.46,2.18.54s1.26.51,2,.56C271.35,12.09,272.13,11.2,271.79,10.77Z"/></g></g></g></svg>