<?xml version="1.0" encoding="utf-8"?>
<!-- Generator: Adobe Illustrator 24.2.2, SVG Export Plug-In . SVG Version: 6.00 Build 0)  -->
<svg version="1.1" xmlns="http://www.w3.org/2000/svg" xmlns:xlink="http://www.w3.org/1999/xlink" x="0px" y="0px"
	 viewBox="0 0 500 496" style="enable-background:new 0 0 500 496;" xml:space="preserve">
<style type="text/css">
	.st0{fill:#FFFFFF;}
	.st1{fill:#CCD7F3;}
	.st2{fill:#ECECF0;}
	.st3{fill:#CDB299;}
	.st4{fill:#BEA38D;}
	.st5{fill:#92806D;}
	.st6{fill:#656FCB;}
	.st7{fill:#FD4D0A;}
	.st8{fill:#CAC8B4;}
	.st9{fill:#33479D;}
	.st10{fill:#CC3B30;}
	.st11{fill:#95806D;}
	.st12{fill:#F7F7E0;}
	.st13{fill:#F6F7E0;}
	.st14{fill:#CDB098;}
	.st15{fill:#AD9680;}
	.st16{fill:#ADC3F4;}
	.st17{fill:#7B88D0;}
	.st18{fill:#877EF0;}
	.st19{fill:#E4EAE6;}
	.st20{fill:#E0E3CD;}
</style>
<g id="BACKGROUND">
</g>
<g id="OBJECTS">
	<g>
		<path class="st7" d="M193,126.3c1.7,3.1,3.4,6.1,5.1,9.2c0.4,0.6,0.5,1.3,0.4,2c-0.5,3,0.9,4.8,3.1,6.6c3.1,2.5,6,3,9.3,0.7
			c4.9-0.4,9.6,1.2,14.4,2c14.2,2.6,28.3,5.1,42.5,7.7c7.9,1.4,15.7,2.9,23.6,4.3c1.1,0.2,2.2,0.4,3.1,1c1.3,0.3,2.6,0.6,3.9,0.8
			c1.3,0.2,2.3,0.7,2,2.1c-0.3,1.3-1.4,1.2-2.5,1c-6.5-1.2-13-2.3-19.5-3.5c-20.9-3.7-41.8-7.5-62.7-11.2c-1.8-0.3-3.3-0.4-4.9,0.6
			c-6.3,3.7-17.9-4.5-16.5-11.8c0.4-1.8,0.1-3.4-1.2-4.8c-2.9-2.1-4.2-5.1-4.5-8.5c-12-21.4-24-42.8-36-64.1c-0.6-1-1.2-2.2,0-2.9
			c1.4-0.9,2.2,0.3,2.8,1.4c0.7,1.2,1.4,2.4,2.2,3.7c1.1,0.6,1.8,1.5,2.4,2.6c9.4,16.9,19,33.7,28.3,50.7c0.9,2.4,2.6,4.4,3.7,6.6
			C192.4,123.7,193.2,124.9,193,126.3z"/>
		<path class="st6" d="M188.4,124.7c1.5,2.8,3,5.7,4.5,8.5c-3.2,4.5-6.4,9-9.8,13.8c-1.3-1.8-0.1-4.3-1.6-4.9
			c-1.4-0.6-3.3,0.2-5.8,0.4C180.3,136.1,184.4,130.4,188.4,124.7z"/>
		<g>
			<path class="st12" d="M168.8,66.2c-0.5-0.7-1-1.2-1.9-1.4c-3.2-0.7-6.3-1.4-9.5-2.2c10.1,18,20.2,36.1,30.3,54.1
				c4.1,0.3,7-1.8,9.6-4.6C189.6,95.7,179.7,80.6,168.8,66.2z"/>
			<path class="st12" d="M293.4,158.1C293.4,158.1,293.4,158.1,293.4,158.1c-2.1-4.7-5.1-7.9-10.7-8.7c-5.2-0.7-10.2-2.5-15.4-3.8
				c-16.3-3.9-32.6-7.8-49.4-9.1c-0.7,0-1.5,0.3-2.3-0.6c7.8-0.6,15.2,0.2,22.5,1.3c16.4,2.6,32.5,6.6,48.4,11.3
				c0.8,0.3,2.1,1.2,2.6-0.3c0.4-1.2-0.9-1.1-1.6-1.3c-20.1-5.9-40.3-11.3-61.3-13c-0.6,0-1.4,0.4-1.7-0.8c1-0.1,1.9-0.3,2.8-0.3
				c14-1.2,27.8,0.2,41.7,2.1c6.1,0.9,12.2,2.1,18.3,3.1c0.7,0.1,1.7,0.7,1.9-0.6c0.2-1-0.8-1-1.4-1.2c-0.3-0.1-0.6-0.1-0.9-0.2
				c-16.5-3.2-33.1-5.6-49.9-5.5c-3.7,0-7.4,0.2-11,0.3c0.7-0.6,1.4-0.8,2.2-1c11.7-2.3,23.6-2.8,35.5-2.6
				c7.4,0.1,14.8,0.6,22.3,0.9c0.7,0,1.8,0.6,2-0.7c0.3-1.6-1.1-1.1-1.9-1.2c-1.7-0.2-3.4-0.3-5.2-0.4c-18.3-0.9-36.6-1.3-54.7,2.4
				c-3.4,0.7-6.7,1.8-10.7,2.9c5.8-4.7,11.4-8.6,17.3-12.1c13.4-8.1,27.5-14.9,41.9-21.1c0.8-0.4,2.4-0.5,1.8-1.9
				c-0.5-1.2-1.6-0.2-2.3,0.1c-8.2,3.3-16.2,7.1-24.1,11.1c-13.6,6.9-26.8,14.5-38.7,25c1.2-4,2.5-7.4,3.4-10.9
				c4.7-19.3,4.8-38.9,3.7-58.5c-0.1-1.2-0.2-2.4-0.3-3.7c0-0.5-0.1-1.1-0.8-1.1c-0.7,0-1.2,0.3-1.1,1.1c0,0.6,0.1,1.2,0.1,1.8
				c1,16.1,1,32.1-1.2,48.1c-0.3,1.8-0.6,3.6-0.9,5.4c-0.3,1.7-0.7,3.3-1,5c0.8-20-1.2-39.7-4.4-59.3c-0.2-1,0.4-3-1.4-2.7
				c-1.6,0.2-0.5,1.9-0.4,2.8c0.8,6.8,1.9,13.5,2.6,20.3c1.5,15.1,2.7,30.2,0.2,45.3c-0.3,2.1-0.6,4.3-1.9,6.4
				c-1-4.4-1.8-8.5-2.9-12.5c-5.5-19.9-13.6-38.7-22.2-57.4c-0.4-0.8-0.4-2.8-1.9-2.1c-1.5,0.7,0,1.9,0.3,2.9c0.3,1.1,0.9,2,1.4,3.1
				c7.1,15.7,13.7,31.5,18.9,48c1.3,4.3,2.6,8.6,2.8,13.2c-0.8-2-1.7-4-2.5-6c-3.6,0.5-6.7,1.7-8.6,5.1c0.8,3.8,2.6,6.9,5.2,9.8
				c4.1,2.2,8.4,4.2,11.7,7.6c0.2,0.1,0.3,0.2,0.5,0.2c0,0.7,0.7,1,1.3,1.4c15.4,2.7,30.8,5.4,46.2,8.1c12.3,2.2,24.6,4.3,36.9,6.4
				C294.2,159.3,293.8,158.7,293.4,158.1z"/>
		</g>
		<path class="st6" d="M187.7,116.8c3.4-1.2,6.4-3,9.6-4.6c2,2.8,3.1,5.9,4.1,9.1c-2.8,1.7-5.9,2.8-8.4,5
			C191.2,123.1,189.1,120.1,187.7,116.8z"/>
		<path class="st6" d="M210.3,143.2c0.4,0.7,0.7,1.4,1.1,2.1c-3.1,2.6-5.7,2.8-8.7,0.7c-5.4-3.7-6.2-5.4-4.6-10.6
			C202.8,137,207,139.5,210.3,143.2z"/>
	</g>
</g>
</svg>
