<svg xmlns="http://www.w3.org/2000/svg" viewBox="0 0 87.1 104.96"><defs><style>.cls-1{fill:none;stroke:#000;stroke-miterlimit:10;stroke-width:3px;}</style></defs><g id="Layer_2" data-name="Layer 2"><g id="Layer_1-2" data-name="Layer 1"><path class="cls-1" d="M1.51,15.94a12.53,12.53,0,0,1,.15-2.12C2.16,10.58,4.18,2.07,11.4,1.7c7.53-.38,50.44-.12,63.64,0,5.57,0,10.17,5.1,10.45,11.59,0,.22,0,.44,0,.66.19,10.87,0,82.62,0,82.62s-.08,13.37-12.81,2.95c-9.59-7.86-18.2-13.26-24.46-15.8a9.18,9.18,0,0,0-8.2.62s-27.56,16.15-27.85,16.37c-1.95,1.44-10.86,7.21-10.69-7.31C1.68,78.22,1.53,23.54,1.51,15.94Z"/></g></g></svg>